<?xml version="1.0" encoding="utf-8"?>
<!-- Generator: Adobe Illustrator 22.1.0, SVG Export Plug-In . SVG Version: 6.00 Build 0)  -->
<svg version="1.1" xmlns="http://www.w3.org/2000/svg" xmlns:xlink="http://www.w3.org/1999/xlink" x="0px" y="0px"
	 viewBox="0 0 1024 1024" style="enable-background:new 0 0 1024 1024;" xml:space="preserve">
<style type="text/css">
	.st0{fill:none;stroke:#FFFFFF;stroke-width:2;}
</style>
<g id="Layer_2">
	<rect width="1024" height="1024"/>
</g>
<g id="Layer_1">
	<desc>, (Blender 2.82 (sub 7))</desc>
	<g>
		
			<image style="overflow:visible;" width="245" height="1228" xlink:href="75EE8DA3.png"  transform="matrix(0.48 0 0 0.48 204.36 196.84)">
		</image>
		<g>
			<polyline class="st0" points="246,212.4 220.7,769.7 282.9,766 305.4,217.5 			"/>
		</g>
	</g>
	<g>
		
			<image style="overflow:visible;" width="247" height="1229" xlink:href="75EE8DA1.png"  transform="matrix(0.48 0 0 0.48 39.72 233.8)">
		</image>
		<g>
			<polyline class="st0" points="115.4,808 141.9,259.7 80.3,250.4 55.8,807.8 			"/>
		</g>
	</g>
	<g>
		
			<image style="overflow:visible;" width="141" height="1311" xlink:href="75EE8DA7.png"  transform="matrix(0.48 0 0 0.48 577.32 194.44)">
		</image>
		<g>
			<polyline class="st0" points="626.6,808.1 628.6,210.6 597,211.8 593.3,807.4 			"/>
		</g>
	</g>
	<g>
		
			<image style="overflow:visible;" width="210" height="530" xlink:href="75EE8DA0.png"  transform="matrix(0.48 0 0 0.48 63.72 22.12)">
		</image>
		<g>
			<polygon class="st0" points="141.9,259.7 147.9,37.8 80.3,250.4 			"/>
		</g>
	</g>
	<g>
		
			<image style="overflow:visible;" width="179" height="407" xlink:href="75EE8DAE.png"  transform="matrix(0.48 0 0 0.48 385.32 803.56)">
		</image>
		<g>
			<polygon class="st0" points="442.2,820 411.7,823.2 401.7,824.5 454.8,983.1 			"/>
		</g>
	</g>
	<g>
		
			<image style="overflow:visible;" width="208" height="407" xlink:href="75EE8DAF.png"  transform="matrix(0.48 0 0 0.48 580.68 33.16)">
		</image>
		<g>
			<polygon class="st0" points="663.6,208 609.5,48.7 597,211.8 628.6,210.6 			"/>
		</g>
	</g>
	<g>
		
			<image style="overflow:visible;" width="244" height="529" xlink:href="75EE8DA2.png"  transform="matrix(0.48 0 0 0.48 125.64 22.12)">
		</image>
		<g>
			<polygon class="st0" points="147.9,37.8 141.9,259.7 185,257.7 225.7,254.4 			"/>
		</g>
	</g>
	<g>
		
			<image style="overflow:visible;" width="164" height="561" xlink:href="75EE8DA5.png"  transform="matrix(0.48 0 0 0.48 531.24 662.44)">
		</image>
		<g>
			<polyline class="st0" points="547.7,677.9 552.4,915 592.7,903.8 593.3,807.4 			"/>
		</g>
	</g>
	<g>
		
			<image style="overflow:visible;" width="139" height="283" xlink:href="75EE8DA6.png"  transform="matrix(0.48 0 0 0.48 576.36 792.04)">
		</image>
		<g>
			<polyline class="st0" points="593.3,807.4 592.7,903.8 619.2,910.9 626.6,808.1 			"/>
		</g>
	</g>
	<g>
		
			<image style="overflow:visible;" width="197" height="568" xlink:href="B7A7890.png"  transform="matrix(0.48 0 0 0.48 98.76 664.84)">
		</image>
		<g>
			<polyline class="st0" points="115.4,808 115.2,905.3 166,920.7 176.9,680.2 			"/>
		</g>
	</g>
	<g>
		
			<image style="overflow:visible;" width="192" height="292" xlink:href="B7A7897.png"  transform="matrix(0.48 0 0 0.48 39.72 792.52)">
		</image>
		<g>
			<polyline class="st0" points="55.8,807.8 60.6,916 90.9,910.5 115.2,905.3 115.4,808 			"/>
		</g>
	</g>
	<g>
		
			<image style="overflow:visible;" width="171" height="1314" xlink:href="B7A7891.png"  transform="matrix(0.48 0 0 0.48 376.68 208.84)">
		</image>
		<g>
			<polygon class="st0" points="442.2,820 438.6,224.4 393,353.9 411.7,823.2 			"/>
		</g>
	</g>
	<g>
		
			<image style="overflow:visible;" width="137" height="84" xlink:href="B7A7893.png"  transform="matrix(0.48 0 0 0.48 449.16 97)">
		</image>
		<g>
			<line class="st0" x1="464.5" y1="120.9" x2="499.3" y2="113.3"/>
		</g>
	</g>
	<g>
		
			<image style="overflow:visible;" width="372" height="111" xlink:href="B7A788E.png"  transform="matrix(0.48 0 0 0.48 699.24 620.68)">
		</image>
		<g>
			<polygon class="st0" points="861.3,651.5 860.5,636.8 724.3,649.9 716.8,657.4 			"/>
		</g>
	</g>
	<g>
		
			<image style="overflow:visible;" width="205" height="92" xlink:href="B7A788F.png"  transform="matrix(0.48 0 0 0.48 381.96 100.36)">
		</image>
		<g>
			<polyline class="st0" points="397.7,116.8 438,128 464.5,120.9 			"/>
		</g>
	</g>
	<g>
		
			<image style="overflow:visible;" width="161" height="296" xlink:href="B7A78B0.png"  transform="matrix(0.48 0 0 0.48 602.76 793)">
		</image>
		<g>
			<polyline class="st0" points="626.6,808.1 619.2,910.9 654.1,918.5 663.6,809.5 			"/>
		</g>
	</g>
	<g>
		
			<image style="overflow:visible;" width="145" height="1320" xlink:href="B7A78B3.png"  transform="matrix(0.48 0 0 0.48 610.44 191.56)">
		</image>
		<g>
			<polyline class="st0" points="663.6,809.5 663.6,208 628.6,210.6 626.6,808.1 			"/>
		</g>
	</g>
	<g>
		
			<image style="overflow:visible;" width="372" height="111" xlink:href="B7A78B1.png"  transform="matrix(0.48 0 0 0.48 699.24 641.8)">
		</image>
		<g>
			<polygon class="st0" points="861.3,663.9 716.8,658 724.3,665.5 860.5,678.5 			"/>
		</g>
	</g>
	<g>
		
			<image style="overflow:visible;" width="119" height="307" xlink:href="B7A78B7.png"  transform="matrix(0.48 0 0 0.48 700.2 528.52)">
		</image>
		<g>
			<polygon class="st0" points="740.6,548.4 730.4,545.2 716.8,657.4 724.3,649.9 			"/>
		</g>
	</g>
	<g>
		
			<image style="overflow:visible;" width="354" height="764" xlink:href="B7A78AB.png"  transform="matrix(0.48 0 0 0.48 707.88 300.04)">
		</image>
		<g>
			<polygon class="st0" points="824.9,607.9 861.3,315.9 740.6,548.4 724.3,649.9 			"/>
		</g>
	</g>
	<g>
		
			<image style="overflow:visible;" width="127" height="1050" xlink:href="B7A78D5.png"  transform="matrix(0.48 0 0 0.48 522.12 190.6)">
		</image>
		<g>
			<polygon class="st0" points="538.5,677.6 547.7,677.9 566.5,208.6 556.4,207.3 548.2,207.1 			"/>
		</g>
	</g>
	<g>
		
			<image style="overflow:visible;" width="353" height="156" xlink:href="B7A78D7.png"  transform="matrix(0.48 0 0 0.48 708.84 591.4)">
		</image>
		<g>
			<polygon class="st0" points="860.5,636.8 824.9,607.9 724.3,649.9 			"/>
		</g>
	</g>
	<g>
		
			<image style="overflow:visible;" width="328" height="324" xlink:href="B7A78DA.png"  transform="matrix(0.48 0 0 0.48 850.44 873.16)">
		</image>
		<g>
			<polygon class="st0" points="906.2,889.2 868.2,889.3 991.6,1012.6 			"/>
		</g>
	</g>
	<g>
		
			<image style="overflow:visible;" width="343" height="564" xlink:href="B7A78DB.png"  transform="matrix(0.48 0 0 0.48 713.64 294.28)">
		</image>
		<g>
			<polygon class="st0" points="861.3,315.9 851.3,310.7 730.4,545.2 740.6,548.4 			"/>
		</g>
	</g>
	<g>
		
			<image style="overflow:visible;" width="246" height="863" xlink:href="B7A78DD.png"  transform="matrix(0.48 0 0 0.48 889.8 616.84)">
		</image>
		<g>
			<polygon class="st0" points="906.2,632.6 906.2,889.2 991.6,1012.6 991.6,856.7 			"/>
		</g>
	</g>
	<g>
		
			<image style="overflow:visible;" width="219" height="1221" xlink:href="B7A78DF.png"  transform="matrix(0.48 0 0 0.48 266.76 202.12)">
		</image>
		<g>
			<polyline class="st0" points="305.4,217.5 282.9,766 325.6,771.7 355.2,350.2 			"/>
		</g>
	</g>
	<g>
		
			<image style="overflow:visible;" width="142" height="1313" xlink:href="B7A78D8.png"  transform="matrix(0.48 0 0 0.48 422.28 207.4)">
		</image>
		<g>
			<polygon class="st0" points="471.8,223.7 438.6,224.4 442.2,820 473.9,821.2 			"/>
		</g>
	</g>
	<g>
		
			<image style="overflow:visible;" width="198" height="528" xlink:href="B7A78D9.png"  transform="matrix(0.48 0 0 0.48 204.36 749.8)">
		</image>
		<g>
			<polygon class="st0" points="282.9,766 220.7,769.7 269,987.5 			"/>
		</g>
	</g>
	<g>
		
			<image style="overflow:visible;" width="213" height="1213" xlink:href="B7A78D6.png"  transform="matrix(0.48 0 0 0.48 99.24 241.48)">
		</image>
		<g>
			<polyline class="st0" points="176.9,680.2 185,257.7 141.9,259.7 115.4,808 			"/>
		</g>
	</g>
	<g>
		
			<image style="overflow:visible;" width="207" height="407" xlink:href="B7A78FA.png"  transform="matrix(0.48 0 0 0.48 426.12 803.56)">
		</image>
		<g>
			<polygon class="st0" points="508.9,823.8 473.9,821.2 442.2,820 454.8,983.1 			"/>
		</g>
	</g>
	<g>
		
			<image style="overflow:visible;" width="271" height="528" xlink:href="B7A78C5.png"  transform="matrix(0.48 0 0 0.48 252.84 749.8)">
		</image>
		<g>
			<polygon class="st0" points="269,987.5 365.8,778.7 325.6,771.7 282.9,766 			"/>
		</g>
	</g>
	<g>
		
			<image style="overflow:visible;" width="171" height="1313" xlink:href="B7A78C6.png"  transform="matrix(0.48 0 0 0.48 531.24 192.52)">
		</image>
		<g>
			<polyline class="st0" points="593.3,807.4 597,211.8 566.5,208.6 547.7,677.9 			"/>
		</g>
	</g>
	<g>
		
			<image style="overflow:visible;" width="163" height="561" xlink:href="B7A78C4.png"  transform="matrix(0.48 0 0 0.48 376.68 100.36)">
		</image>
		<g>
			<polygon class="st0" points="438.6,224.4 438,128 397.7,116.8 393,353.9 			"/>
		</g>
	</g>
	<g>
		
			<image style="overflow:visible;" width="139" height="285" xlink:href="B7A78CA.png"  transform="matrix(0.48 0 0 0.48 421.8 104.2)">
		</image>
		<g>
			<polygon class="st0" points="464.5,120.9 438,128 438.6,224.4 471.8,223.7 			"/>
		</g>
	</g>
	<g>
		
			<image style="overflow:visible;" width="194" height="568" xlink:href="B7A78CD.png"  transform="matrix(0.48 0 0 0.48 289.32 93.16)">
		</image>
		<g>
			<polyline class="st0" points="355.2,350.2 365.8,109.7 313.9,120.6 305.4,217.5 			"/>
		</g>
	</g>
	<g>
		
			<image style="overflow:visible;" width="210" height="301" xlink:href="B7A78CE.png"  transform="matrix(0.48 0 0 0.48 229.8 88.36)">
		</image>
		<g>
			<polyline class="st0" points="305.4,217.5 313.9,120.6 290.1,113.1 260.4,104.9 246,212.4 			"/>
		</g>
	</g>
	<g>
		
			<image style="overflow:visible;" width="222" height="100" xlink:href="B7A78CC.png"  transform="matrix(0.48 0 0 0.48 75.24 889)">
		</image>
		<g>
			<polyline class="st0" points="166,920.7 115.2,905.3 90.9,910.5 			"/>
		</g>
	</g>
	<g>
		<g>
			<path class="st0" d="M136.5,950.8"/>
		</g>
		<g>
			<path class="st0" d="M136.5,950.8"/>
		</g>
	</g>
	<g>
		
			<image style="overflow:visible;" width="161" height="298" xlink:href="B7A78CB.png"  transform="matrix(0.48 0 0 0.48 448.2 97)">
		</image>
		<g>
			<polygon class="st0" points="499.3,113.3 464.5,120.9 471.8,223.7 508.9,222.3 			"/>
		</g>
	</g>
	<g>
		
			<image style="overflow:visible;" width="146" height="1322" xlink:href="B7A78C7.png"  transform="matrix(0.48 0 0 0.48 455.4 205.96)">
		</image>
		<g>
			<polygon class="st0" points="508.9,222.3 471.8,223.7 473.9,821.2 508.9,823.8 			"/>
		</g>
	</g>
	<g>
		
			<image style="overflow:visible;" width="119" height="306" xlink:href="B7A7921.png"  transform="matrix(0.48 0 0 0.48 700.2 639.88)">
		</image>
		<g>
			<polygon class="st0" points="740.6,766.9 724.3,665.5 716.8,658 730.4,770.1 			"/>
		</g>
	</g>
	<g>
		
			<image style="overflow:visible;" width="354" height="764" xlink:href="B7A7923.png"  transform="matrix(0.48 0 0 0.48 707.88 648.52)">
		</image>
		<g>
			<polygon class="st0" points="824.9,707.4 724.3,665.5 740.6,766.9 861.3,999.5 			"/>
		</g>
	</g>
	<g>
		
			<image style="overflow:visible;" width="126" height="1049" xlink:href="B7A7920.png"  transform="matrix(0.48 0 0 0.48 367.56 337.48)">
		</image>
		<g>
			<polygon class="st0" points="383.8,354.1 393.5,824.7 401.7,824.5 411.7,823.2 393,353.9 			"/>
		</g>
	</g>
	<g>
		
			<image style="overflow:visible;" width="353" height="155" xlink:href="B7A7927.png"  transform="matrix(0.48 0 0 0.48 708.84 649.48)">
		</image>
		<g>
			<polygon class="st0" points="860.5,678.5 724.3,665.5 824.9,707.4 			"/>
		</g>
	</g>
	<g>
		
			<image style="overflow:visible;" width="328" height="325" xlink:href="B7A7922.png"  transform="matrix(0.48 0 0 0.48 850.44 236.2)">
		</image>
		<g>
			<polygon class="st0" points="906.2,375.5 991.6,252.1 868.2,375.4 			"/>
		</g>
	</g>
	<g>
		
			<image style="overflow:visible;" width="343" height="565" xlink:href="B7A793E.png"  transform="matrix(0.48 0 0 0.48 713.64 750.28)">
		</image>
		<g>
			<polygon class="st0" points="861.3,999.5 740.6,766.9 730.4,770.1 851.3,1004.7 			"/>
		</g>
	</g>
	<g>
		
			<image style="overflow:visible;" width="246" height="863" xlink:href="B7A793F.png"  transform="matrix(0.48 0 0 0.48 889.8 233.8)">
		</image>
		<g>
			<polygon class="st0" points="906.2,632.1 991.6,408 991.6,252.1 906.2,375.5 			"/>
		</g>
	</g>
	<g>
		
			<image style="overflow:visible;" width="179" height="407" xlink:href="B7A7924.png"  transform="matrix(0.48 0 0 0.48 539.88 33.16)">
		</image>
		<g>
			<polygon class="st0" points="597,211.8 609.5,48.7 556.4,207.3 566.5,208.6 			"/>
		</g>
	</g>
	<g>
		
			<image style="overflow:visible;" width="176" height="189" xlink:href="B7A7925.png"  transform="matrix(0.48 0 0 0.48 717.48 43.24)">
		</image>
		<g>
			<polygon class="st0" points="733.7,116.8 783.7,93.9 785.4,78.6 733.7,59.9 			"/>
		</g>
	</g>
	<g>
		
			<image style="overflow:visible;" width="203" height="193" xlink:href="B7A7926.png"  transform="matrix(0.48 0 0 0.48 716.52 2.44)">
		</image>
		<g>
			<polygon class="st0" points="733.7,59.9 785.4,78.6 797.1,69 773.8,19.5 			"/>
		</g>
	</g>
	<g>
		
			<image style="overflow:visible;" width="189" height="175" xlink:href="B7A791C.png"  transform="matrix(0.48 0 0 0.48 756.84 3.4)">
		</image>
		<g>
			<polygon class="st0" points="773.8,19.5 797.1,69 811.9,70.7 830.7,19.4 			"/>
		</g>
	</g>
	<g>
		
			<image style="overflow:visible;" width="193" height="202" xlink:href="B7A791B.png"  transform="matrix(0.48 0 0 0.48 795.72 2.44)">
		</image>
		<g>
			<polygon class="st0" points="830.7,19.4 811.9,70.7 820.9,82.8 870.9,59.9 			"/>
		</g>
	</g>
	<g>
		
			<image style="overflow:visible;" width="176" height="189" xlink:href="B7A7904.png"  transform="matrix(0.48 0 0 0.48 802.92 43.24)">
		</image>
		<g>
			<polygon class="st0" points="870.9,59.9 820.9,82.8 819.2,98.2 870.9,116.8 			"/>
		</g>
	</g>
	<g>
		
			<image style="overflow:visible;" width="203" height="193" xlink:href="B7A7907.png"  transform="matrix(0.48 0 0 0.48 790.92 81.64)">
		</image>
		<g>
			<polygon class="st0" points="870.9,116.8 819.2,98.2 807.5,107.8 830.8,157.3 			"/>
		</g>
	</g>
	<g>
		
			<image style="overflow:visible;" width="131" height="116" xlink:href="B7A7905.png"  transform="matrix(0.48 0 0 0.48 743.88 251.56)">
		</image>
		<g>
			<polygon class="st0" points="780.2,267.9 768.6,269.6 760.5,290.5 789.5,288.3 			"/>
		</g>
	</g>
	<g>
		
			<image style="overflow:visible;" width="189" height="175" xlink:href="B7A790B.png"  transform="matrix(0.48 0 0 0.48 757.32 89.8)">
		</image>
		<g>
			<polygon class="st0" points="830.8,157.3 807.5,107.8 792.6,106.1 773.8,157.3 			"/>
		</g>
	</g>
	<g>
		
			<image style="overflow:visible;" width="193" height="203" xlink:href="B7A790C.png"  transform="matrix(0.48 0 0 0.48 716.52 77.32)">
		</image>
		<g>
			<polygon class="st0" points="773.8,157.3 792.6,106.1 783.7,93.9 733.7,116.8 			"/>
		</g>
	</g>
	<g>
		
			<image style="overflow:visible;" width="197" height="186" xlink:href="B7A790F.png"  transform="matrix(0.48 0 0 0.48 682.92 254.92)">
		</image>
		<g>
			<polygon class="st0" points="760.5,290.5 738.6,271.3 700.1,284.3 742.6,327 			"/>
		</g>
	</g>
	<g>
		
			<image style="overflow:visible;" width="116" height="131" xlink:href="B7A790D.png"  transform="matrix(0.48 0 0 0.48 720.36 225.64)">
		</image>
		<g>
			<polygon class="st0" points="759.4,262.4 758.2,250.5 736.8,242.3 738.6,271.3 			"/>
		</g>
	</g>
	<g>
		
			<image style="overflow:visible;" width="130" height="133" xlink:href="B7A790A.png"  transform="matrix(0.48 0 0 0.48 763.56 241.96)">
		</image>
		<g>
			<polygon class="st0" points="787,258.6 780.2,267.9 789.5,288.3 808.6,265.8 			"/>
		</g>
	</g>
	<g>
		
			<image style="overflow:visible;" width="131" height="116" xlink:href="B7A796F.png"  transform="matrix(0.48 0 0 0.48 739.08 201.64)">
		</image>
		<g>
			<polygon class="st0" points="765.2,240.8 777,239.3 785,218 756,220.1 			"/>
		</g>
	</g>
	<g>
		
			<image style="overflow:visible;" width="133" height="129" xlink:href="B7A7969.png"  transform="matrix(0.48 0 0 0.48 721.32 245.8)">
		</image>
		<g>
			<polygon class="st0" points="768.6,269.6 759.4,262.4 738.6,271.3 760.5,290.5 			"/>
		</g>
	</g>
	<g>
		
			<image style="overflow:visible;" width="114" height="131" xlink:href="B7A796B.png"  transform="matrix(0.48 0 0 0.48 770.28 219.88)">
		</image>
		<g>
			<polygon class="st0" points="786.7,246.7 787,258.6 808.6,265.8 806.9,236.8 			"/>
		</g>
	</g>
	<g>
		
			<image style="overflow:visible;" width="132" height="130" xlink:href="B7A7916.png"  transform="matrix(0.48 0 0 0.48 760.68 201.16)">
		</image>
		<g>
			<polygon class="st0" points="777,239.3 786.7,246.7 806.9,236.8 785,218 			"/>
		</g>
	</g>
	<g>
		
			<image style="overflow:visible;" width="129" height="134" xlink:href="B7A7917.png"  transform="matrix(0.48 0 0 0.48 719.88 203.08)">
		</image>
		<g>
			<polygon class="st0" points="758.2,250.5 765.2,240.8 756,220.1 736.8,242.3 			"/>
		</g>
	</g>
	<g>
		
			<image style="overflow:visible;" width="178" height="185" xlink:href="B7A7919.png"  transform="matrix(0.48 0 0 0.48 934.92 168.52)">
		</image>
		<g>
			<polygon class="st0" points="964.6,240.2 1003.3,201.7 967.5,184.8 951.2,203.1 			"/>
		</g>
	</g>
	<g>
		
			<image style="overflow:visible;" width="186" height="196" xlink:href="B7A791A.png"  transform="matrix(0.48 0 0 0.48 683.4 164.68)">
		</image>
		<g>
			<polygon class="st0" points="736.8,242.3 756,220.1 742.8,181.7 700.3,224.2 			"/>
		</g>
	</g>
	<g>
		
			<image style="overflow:visible;" width="196" height="185" xlink:href="B7A791E.png"  transform="matrix(0.48 0 0 0.48 768.36 164.68)">
		</image>
		<g>
			<polygon class="st0" points="785,218 806.9,236.8 845.3,223.8 802.8,181.6 			"/>
		</g>
	</g>
	<g>
		
			<image style="overflow:visible;" width="149" height="195" xlink:href="B7A791F.png"  transform="matrix(0.48 0 0 0.48 790.44 207.4)">
		</image>
		<g>
			<polygon class="st0" points="806.9,236.8 808.6,265.8 845.3,283.9 845.3,223.8 			"/>
		</g>
	</g>
	<g>
		
			<image style="overflow:visible;" width="196" height="148" xlink:href="B7A7914.png"  transform="matrix(0.48 0 0 0.48 725.64 272.2)">
		</image>
		<g>
			<polygon class="st0" points="789.5,288.3 760.5,290.5 742.6,327 802.8,326.8 			"/>
		</g>
	</g>
	<g>
		
			<image style="overflow:visible;" width="149" height="195" xlink:href="B7A7930.png"  transform="matrix(0.48 0 0 0.48 683.88 207.4)">
		</image>
		<g>
			<polygon class="st0" points="738.6,271.3 736.8,242.3 700.3,224.2 700.1,284.3 			"/>
		</g>
	</g>
	<g>
		
			<image style="overflow:visible;" width="195" height="149" xlink:href="B7A7931.png"  transform="matrix(0.48 0 0 0.48 726.12 165.16)">
		</image>
		<g>
			<polygon class="st0" points="756,220.1 785,218 802.8,181.6 742.8,181.7 			"/>
		</g>
	</g>
	<g>
		
			<image style="overflow:visible;" width="186" height="198" xlink:href="B7A7932.png"  transform="matrix(0.48 0 0 0.48 773.16 249.16)">
		</image>
		<g>
			<polygon class="st0" points="808.6,265.8 789.5,288.3 802.8,326.8 845.3,283.9 			"/>
		</g>
	</g>
	<g>
		
			<image style="overflow:visible;" width="184" height="184" xlink:href="B7A7937.png"  transform="matrix(0.48 0 0 0.48 786.6 152.2)">
		</image>
		<g>
			<polygon class="st0" points="857.8,218.8 808.1,169.1 802.8,181.6 845.3,223.8 			"/>
		</g>
	</g>
	<g>
		
			<image style="overflow:visible;" width="217" height="95" xlink:href="B7A7936.png"  transform="matrix(0.48 0 0 0.48 720.84 152.68)">
		</image>
		<g>
			<polygon class="st0" points="808.1,169.1 737.8,169.1 742.8,181.7 802.8,181.6 			"/>
		</g>
	</g>
	<g>
		
			<image style="overflow:visible;" width="184" height="185" xlink:href="B7A7933.png"  transform="matrix(0.48 0 0 0.48 670.92 152.2)">
		</image>
		<g>
			<polygon class="st0" points="737.8,169.1 687.8,218.8 700.3,224.2 742.8,181.7 			"/>
		</g>
	</g>
	<g>
		
			<image style="overflow:visible;" width="94" height="217" xlink:href="B7A792E.png"  transform="matrix(0.48 0 0 0.48 671.4 202.12)">
		</image>
		<g>
			<polygon class="st0" points="687.8,218.8 687.5,289.3 700.1,284.3 700.3,224.2 			"/>
		</g>
	</g>
	<g>
		
			<image style="overflow:visible;" width="185" height="185" xlink:href="B7A792F.png"  transform="matrix(0.48 0 0 0.48 670.44 267.88)">
		</image>
		<g>
			<polygon class="st0" points="687.5,289.3 737.2,339.5 742.6,327 700.1,284.3 			"/>
		</g>
	</g>
	<g>
		
			<image style="overflow:visible;" width="218" height="94" xlink:href="B7A79CE.png"  transform="matrix(0.48 0 0 0.48 720.36 310.6)">
		</image>
		<g>
			<polygon class="st0" points="737.2,339.5 808,339.4 802.8,326.8 742.6,327 			"/>
		</g>
	</g>
	<g>
		
			<image style="overflow:visible;" width="184" height="186" xlink:href="B7A79D1.png"  transform="matrix(0.48 0 0 0.48 786.6 267.4)">
		</image>
		<g>
			<polygon class="st0" points="808,339.4 857.8,289.1 845.3,283.9 802.8,326.8 			"/>
		</g>
	</g>
	<g>
		
			<image style="overflow:visible;" width="95" height="217" xlink:href="B7A79CD.png"  transform="matrix(0.48 0 0 0.48 828.84 202.12)">
		</image>
		<g>
			<polygon class="st0" points="857.8,289.1 857.8,218.8 845.3,223.8 845.3,283.9 			"/>
		</g>
	</g>
	<g>
		
			<image style="overflow:visible;" width="119" height="121" xlink:href="B7A79CF.png"  transform="matrix(0.48 0 0 0.48 890.76 147.88)">
		</image>
		<g>
			<polygon class="st0" points="907.2,164.6 908.5,188.7 931.2,177.6 930.9,172.5 			"/>
		</g>
	</g>
	<g>
		
			<image style="overflow:visible;" width="186" height="178" xlink:href="B7A79CC.png"  transform="matrix(0.48 0 0 0.48 931.08 91.24)">
		</image>
		<g>
			<polygon class="st0" points="1003.3,146.9 964.3,108.3 947.7,144.1 966.1,160.2 			"/>
		</g>
	</g>
	<g>
		
			<image style="overflow:visible;" width="177" height="187" xlink:href="B7A79F3.png"  transform="matrix(0.48 0 0 0.48 854.76 91.72)">
		</image>
		<g>
			<polygon class="st0" points="909.6,108.9 871.6,147.9 907.2,164.6 923.3,145.8 			"/>
		</g>
	</g>
	<g>
		
			<image style="overflow:visible;" width="184" height="146" xlink:href="B7A79F5.png"  transform="matrix(0.48 0 0 0.48 893.16 186.76)">
		</image>
		<g>
			<polygon class="st0" points="910.1,240.2 964.6,240.2 951.2,203.1 926.8,204.7 			"/>
		</g>
	</g>
	<g>
		
			<image style="overflow:visible;" width="146" height="185" xlink:href="B7A79F7.png"  transform="matrix(0.48 0 0 0.48 949.8 130.12)">
		</image>
		<g>
			<polygon class="st0" points="1003.3,201.7 1003.3,146.9 966.1,160.2 967.5,184.8 			"/>
		</g>
	</g>
	<g>
		
			<image style="overflow:visible;" width="184" height="146" xlink:href="B7A79F4.png"  transform="matrix(0.48 0 0 0.48 893.16 92.2)">
		</image>
		<g>
			<polygon class="st0" points="964.3,108.3 909.6,108.9 923.3,145.8 947.7,144.1 			"/>
		</g>
	</g>
	<g>
		
			<image style="overflow:visible;" width="145" height="183" xlink:href="B7A79FC.png"  transform="matrix(0.48 0 0 0.48 855.24 131.08)">
		</image>
		<g>
			<polygon class="st0" points="871.6,147.9 871.8,202 908.5,188.7 907.2,164.6 			"/>
		</g>
	</g>
	<g>
		
			<image style="overflow:visible;" width="185" height="177" xlink:href="B7A79FD.png"  transform="matrix(0.48 0 0 0.48 854.76 172.36)">
		</image>
		<g>
			<polygon class="st0" points="871.8,202 910.1,240.2 926.8,204.7 908.5,188.7 			"/>
		</g>
	</g>
	<g>
		
			<image style="overflow:visible;" width="95" height="96" xlink:href="B7A79FF.png"  transform="matrix(0.48 0 0 0.48 914.76 151.24)">
		</image>
		<g>
			<polygon class="st0" points="930.9,172.5 931.2,177.6 935.4,180.7 940.5,180 943.7,175.8 943,170.7 939,167.6 934,168.4 			"/>
		</g>
	</g>
	<g>
		
			<image style="overflow:visible;" width="126" height="126" xlink:href="B7A7998.png"  transform="matrix(0.48 0 0 0.48 891.72 161.32)">
		</image>
		<g>
			<polygon class="st0" points="908.5,188.7 926.8,204.7 935.4,180.7 931.2,177.6 			"/>
		</g>
	</g>
	<g>
		
			<image style="overflow:visible;" width="127" height="127" xlink:href="B7A799F.png"  transform="matrix(0.48 0 0 0.48 923.88 159.4)">
		</image>
		<g>
			<polygon class="st0" points="951.2,203.1 967.5,184.8 943.7,175.8 940.5,180 			"/>
		</g>
	</g>
	<g>
		
			<image style="overflow:visible;" width="127" height="125" xlink:href="B7A7999.png"  transform="matrix(0.48 0 0 0.48 922.44 127.24)">
		</image>
		<g>
			<polygon class="st0" points="966.1,160.2 947.7,144.1 939,167.6 943,170.7 			"/>
		</g>
	</g>
	<g>
		
			<image style="overflow:visible;" width="126" height="126" xlink:href="B7A799B.png"  transform="matrix(0.48 0 0 0.48 890.28 128.68)">
		</image>
		<g>
			<polygon class="st0" points="923.3,145.8 907.2,164.6 930.9,172.5 934,168.4 			"/>
		</g>
	</g>
	<g>
		
			<image style="overflow:visible;" width="121" height="120" xlink:href="B7A79A6.png"  transform="matrix(0.48 0 0 0.48 909.96 163.72)">
		</image>
		<g>
			<polygon class="st0" points="926.8,204.7 951.2,203.1 940.5,180 935.4,180.7 			"/>
		</g>
	</g>
	<g>
		
			<image style="overflow:visible;" width="119" height="121" xlink:href="B7A79A7.png"  transform="matrix(0.48 0 0 0.48 926.76 143.56)">
		</image>
		<g>
			<polygon class="st0" points="967.5,184.8 966.1,160.2 943,170.7 943.7,175.8 			"/>
		</g>
	</g>
	<g>
		
			<image style="overflow:visible;" width="121" height="119" xlink:href="B7A79A8.png"  transform="matrix(0.48 0 0 0.48 906.6 127.72)">
		</image>
		<g>
			<polygon class="st0" points="947.7,144.1 923.3,145.8 934,168.4 939,167.6 			"/>
		</g>
	</g>
</g>
</svg>
