<?xml version="1.0" standalone="no"?>
<!DOCTYPE svg PUBLIC "-//W3C//DTD SVG 1.1//EN" 
  "http://www.w3.org/Graphics/SVG/1.1/DTD/svg11.dtd">
<svg width="1024" height="1024" viewBox="0 0 1024 1024"
     xmlns="http://www.w3.org/2000/svg" version="1.1">
<desc>mine.blend, (Blender 2.83.5)</desc>
<polygon stroke="black" stroke-width="1" fill="rgb(204, 204, 204)" fill-opacity="0.25" points="888.032,338.407 888.032,123.206 982.635,123.206 982.635,338.407 " />
<polygon stroke="black" stroke-width="1" fill="rgb(204, 204, 204)" fill-opacity="0.25" points="888.032,338.407 888.032,123.206 982.635,123.206 982.635,338.407 " />
<polygon stroke="black" stroke-width="1" fill="rgb(204, 204, 204)" fill-opacity="0.25" points="982.635,338.407 982.635,123.206 888.032,123.206 888.032,338.407 " />
<polygon stroke="black" stroke-width="1" fill="rgb(204, 204, 204)" fill-opacity="0.25" points="982.635,338.407 982.635,123.206 888.032,123.206 888.032,338.407 " />
<polygon stroke="black" stroke-width="1" fill="rgb(204, 204, 204)" fill-opacity="0.25" points="888.032,27.036 982.635,27.036 982.635,121.639 888.032,121.639 " />
<polygon stroke="black" stroke-width="1" fill="rgb(204, 204, 204)" fill-opacity="0.25" points="982.635,27.036 888.032,27.036 888.032,121.639 982.635,121.639 " />
<polygon stroke="black" stroke-width="1" fill="rgb(204, 204, 204)" fill-opacity="0.25" points="982.635,438.550 982.635,388.583 888.032,388.583 888.032,438.550 " />
<polygon stroke="black" stroke-width="1" fill="rgb(204, 204, 204)" fill-opacity="0.25" points="982.635,438.550 982.635,388.583 888.032,388.583 888.032,438.550 " />
<polygon stroke="black" stroke-width="1" fill="rgb(204, 204, 204)" fill-opacity="0.25" points="888.032,438.550 888.032,388.583 982.635,388.583 982.635,438.550 " />
<polygon stroke="black" stroke-width="1" fill="rgb(204, 204, 204)" fill-opacity="0.25" points="888.032,438.550 888.032,388.583 982.635,388.583 982.635,438.550 " />
<polygon stroke="black" stroke-width="1" fill="rgb(204, 204, 204)" fill-opacity="0.25" points="982.635,388.583 982.635,338.407 888.032,338.407 888.032,388.583 " />
<polygon stroke="black" stroke-width="1" fill="rgb(204, 204, 204)" fill-opacity="0.25" points="982.635,388.583 982.635,338.407 888.032,338.407 888.032,388.583 " />
<polygon stroke="black" stroke-width="1" fill="rgb(204, 204, 204)" fill-opacity="0.25" points="888.032,388.583 888.032,338.407 982.635,338.407 982.635,388.583 " />
<polygon stroke="black" stroke-width="1" fill="rgb(204, 204, 204)" fill-opacity="0.25" points="888.032,388.583 888.032,338.407 982.635,338.407 982.635,388.583 " />
<polygon stroke="black" stroke-width="1" fill="rgb(204, 204, 204)" fill-opacity="0.25" points="888.032,338.407 888.032,123.206 982.635,123.206 982.635,338.407 " />
<polygon stroke="black" stroke-width="1" fill="rgb(204, 204, 204)" fill-opacity="0.25" points="888.032,338.407 888.032,123.206 982.635,123.206 982.635,338.407 " />
<polygon stroke="black" stroke-width="1" fill="rgb(204, 204, 204)" fill-opacity="0.25" points="982.635,338.407 982.635,123.206 888.032,123.206 888.032,338.407 " />
<polygon stroke="black" stroke-width="1" fill="rgb(204, 204, 204)" fill-opacity="0.25" points="982.635,338.407 982.635,123.206 888.032,123.206 888.032,338.407 " />
<polygon stroke="black" stroke-width="1" fill="rgb(204, 204, 204)" fill-opacity="0.25" points="888.032,27.036 982.635,27.036 982.635,121.639 888.032,121.639 " />
<polygon stroke="black" stroke-width="1" fill="rgb(204, 204, 204)" fill-opacity="0.25" points="982.635,27.036 888.032,27.036 888.032,121.639 982.635,121.639 " />
<polygon stroke="black" stroke-width="1" fill="rgb(204, 204, 204)" fill-opacity="0.25" points="982.635,438.550 982.635,388.583 888.032,388.583 888.032,438.550 " />
<polygon stroke="black" stroke-width="1" fill="rgb(204, 204, 204)" fill-opacity="0.25" points="982.635,438.550 982.635,388.583 888.032,388.583 888.032,438.550 " />
<polygon stroke="black" stroke-width="1" fill="rgb(204, 204, 204)" fill-opacity="0.25" points="888.032,438.550 888.032,388.583 982.635,388.583 982.635,438.550 " />
<polygon stroke="black" stroke-width="1" fill="rgb(204, 204, 204)" fill-opacity="0.25" points="888.032,438.550 888.032,388.583 982.635,388.583 982.635,438.550 " />
<polygon stroke="black" stroke-width="1" fill="rgb(204, 204, 204)" fill-opacity="0.25" points="982.635,388.583 982.635,338.407 888.032,338.407 888.032,388.583 " />
<polygon stroke="black" stroke-width="1" fill="rgb(204, 204, 204)" fill-opacity="0.25" points="982.635,388.583 982.635,338.407 888.032,338.407 888.032,388.583 " />
<polygon stroke="black" stroke-width="1" fill="rgb(204, 204, 204)" fill-opacity="0.25" points="888.032,388.583 888.032,338.407 982.635,338.407 982.635,388.583 " />
<polygon stroke="black" stroke-width="1" fill="rgb(204, 204, 204)" fill-opacity="0.25" points="888.032,388.583 888.032,338.407 982.635,338.407 982.635,388.583 " />
<polygon stroke="black" stroke-width="1" fill="rgb(204, 204, 204)" fill-opacity="0.25" points="888.032,338.407 888.032,123.206 982.635,123.206 982.635,338.407 " />
<polygon stroke="black" stroke-width="1" fill="rgb(204, 204, 204)" fill-opacity="0.25" points="888.032,338.407 888.032,123.206 982.635,123.206 982.635,338.407 " />
<polygon stroke="black" stroke-width="1" fill="rgb(204, 204, 204)" fill-opacity="0.25" points="982.635,338.407 982.635,123.206 888.032,123.206 888.032,338.407 " />
<polygon stroke="black" stroke-width="1" fill="rgb(204, 204, 204)" fill-opacity="0.25" points="982.635,338.407 982.635,123.206 888.032,123.206 888.032,338.407 " />
<polygon stroke="black" stroke-width="1" fill="rgb(204, 204, 204)" fill-opacity="0.25" points="888.032,27.036 982.635,27.036 982.635,121.639 888.032,121.639 " />
<polygon stroke="black" stroke-width="1" fill="rgb(204, 204, 204)" fill-opacity="0.25" points="982.635,27.036 888.032,27.036 888.032,121.639 982.635,121.639 " />
<polygon stroke="black" stroke-width="1" fill="rgb(204, 204, 204)" fill-opacity="0.25" points="982.635,438.550 982.635,388.583 888.032,388.583 888.032,438.550 " />
<polygon stroke="black" stroke-width="1" fill="rgb(204, 204, 204)" fill-opacity="0.25" points="982.635,438.550 982.635,388.583 888.032,388.583 888.032,438.550 " />
<polygon stroke="black" stroke-width="1" fill="rgb(204, 204, 204)" fill-opacity="0.25" points="888.032,438.550 888.032,388.583 982.635,388.583 982.635,438.550 " />
<polygon stroke="black" stroke-width="1" fill="rgb(204, 204, 204)" fill-opacity="0.25" points="888.032,438.550 888.032,388.583 982.635,388.583 982.635,438.550 " />
<polygon stroke="black" stroke-width="1" fill="rgb(204, 204, 204)" fill-opacity="0.25" points="982.635,388.583 982.635,338.407 888.032,338.407 888.032,388.583 " />
<polygon stroke="black" stroke-width="1" fill="rgb(204, 204, 204)" fill-opacity="0.25" points="982.635,388.583 982.635,338.407 888.032,338.407 888.032,388.583 " />
<polygon stroke="black" stroke-width="1" fill="rgb(204, 204, 204)" fill-opacity="0.25" points="888.032,388.583 888.032,338.407 982.635,338.407 982.635,388.583 " />
<polygon stroke="black" stroke-width="1" fill="rgb(204, 204, 204)" fill-opacity="0.25" points="888.032,388.583 888.032,338.407 982.635,338.407 982.635,388.583 " />
<polygon stroke="black" stroke-width="1" fill="rgb(204, 204, 204)" fill-opacity="0.25" points="888.032,338.407 888.032,123.206 982.635,123.206 982.635,338.407 " />
<polygon stroke="black" stroke-width="1" fill="rgb(204, 204, 204)" fill-opacity="0.25" points="888.032,338.407 888.032,123.206 982.635,123.206 982.635,338.407 " />
<polygon stroke="black" stroke-width="1" fill="rgb(204, 204, 204)" fill-opacity="0.25" points="982.635,338.407 982.635,123.206 888.032,123.206 888.032,338.407 " />
<polygon stroke="black" stroke-width="1" fill="rgb(204, 204, 204)" fill-opacity="0.25" points="982.635,338.407 982.635,123.206 888.032,123.206 888.032,338.407 " />
<polygon stroke="black" stroke-width="1" fill="rgb(204, 204, 204)" fill-opacity="0.25" points="888.032,27.036 982.635,27.036 982.635,121.639 888.032,121.639 " />
<polygon stroke="black" stroke-width="1" fill="rgb(204, 204, 204)" fill-opacity="0.25" points="982.635,27.036 888.032,27.036 888.032,121.639 982.635,121.639 " />
<polygon stroke="black" stroke-width="1" fill="rgb(204, 204, 204)" fill-opacity="0.25" points="982.635,438.550 982.635,388.583 888.032,388.583 888.032,438.550 " />
<polygon stroke="black" stroke-width="1" fill="rgb(204, 204, 204)" fill-opacity="0.25" points="982.635,438.550 982.635,388.583 888.032,388.583 888.032,438.550 " />
<polygon stroke="black" stroke-width="1" fill="rgb(204, 204, 204)" fill-opacity="0.25" points="888.032,438.550 888.032,388.583 982.635,388.583 982.635,438.550 " />
<polygon stroke="black" stroke-width="1" fill="rgb(204, 204, 204)" fill-opacity="0.25" points="888.032,438.550 888.032,388.583 982.635,388.583 982.635,438.550 " />
<polygon stroke="black" stroke-width="1" fill="rgb(204, 204, 204)" fill-opacity="0.25" points="982.635,388.583 982.635,338.407 888.032,338.407 888.032,388.583 " />
<polygon stroke="black" stroke-width="1" fill="rgb(204, 204, 204)" fill-opacity="0.25" points="982.635,388.583 982.635,338.407 888.032,338.407 888.032,388.583 " />
<polygon stroke="black" stroke-width="1" fill="rgb(204, 204, 204)" fill-opacity="0.25" points="888.032,388.583 888.032,338.407 982.635,338.407 982.635,388.583 " />
<polygon stroke="black" stroke-width="1" fill="rgb(204, 204, 204)" fill-opacity="0.25" points="888.032,388.583 888.032,338.407 982.635,338.407 982.635,388.583 " />
<polygon stroke="black" stroke-width="1" fill="rgb(204, 204, 204)" fill-opacity="0.25" points="888.032,338.407 888.032,123.206 982.635,123.206 982.635,338.407 " />
<polygon stroke="black" stroke-width="1" fill="rgb(204, 204, 204)" fill-opacity="0.25" points="888.032,338.407 888.032,123.206 982.635,123.206 982.635,338.407 " />
<polygon stroke="black" stroke-width="1" fill="rgb(204, 204, 204)" fill-opacity="0.25" points="982.635,338.407 982.635,123.206 888.032,123.206 888.032,338.407 " />
<polygon stroke="black" stroke-width="1" fill="rgb(204, 204, 204)" fill-opacity="0.25" points="982.635,338.407 982.635,123.206 888.032,123.206 888.032,338.407 " />
<polygon stroke="black" stroke-width="1" fill="rgb(204, 204, 204)" fill-opacity="0.25" points="888.032,27.036 982.635,27.036 982.635,121.639 888.032,121.639 " />
<polygon stroke="black" stroke-width="1" fill="rgb(204, 204, 204)" fill-opacity="0.25" points="982.635,27.036 888.032,27.036 888.032,121.639 982.635,121.639 " />
<polygon stroke="black" stroke-width="1" fill="rgb(204, 204, 204)" fill-opacity="0.25" points="982.635,438.550 982.635,388.583 888.032,388.583 888.032,438.550 " />
<polygon stroke="black" stroke-width="1" fill="rgb(204, 204, 204)" fill-opacity="0.25" points="982.635,438.550 982.635,388.583 888.032,388.583 888.032,438.550 " />
<polygon stroke="black" stroke-width="1" fill="rgb(204, 204, 204)" fill-opacity="0.25" points="888.032,438.550 888.032,388.583 982.635,388.583 982.635,438.550 " />
<polygon stroke="black" stroke-width="1" fill="rgb(204, 204, 204)" fill-opacity="0.25" points="888.032,438.550 888.032,388.583 982.635,388.583 982.635,438.550 " />
<polygon stroke="black" stroke-width="1" fill="rgb(204, 204, 204)" fill-opacity="0.25" points="982.635,388.583 982.635,338.407 888.032,338.407 888.032,388.583 " />
<polygon stroke="black" stroke-width="1" fill="rgb(204, 204, 204)" fill-opacity="0.25" points="982.635,388.583 982.635,338.407 888.032,338.407 888.032,388.583 " />
<polygon stroke="black" stroke-width="1" fill="rgb(204, 204, 204)" fill-opacity="0.25" points="888.032,388.583 888.032,338.407 982.635,338.407 982.635,388.583 " />
<polygon stroke="black" stroke-width="1" fill="rgb(204, 204, 204)" fill-opacity="0.25" points="888.032,388.583 888.032,338.407 982.635,338.407 982.635,388.583 " />
<polygon stroke="black" stroke-width="1" fill="rgb(204, 204, 204)" fill-opacity="0.25" points="888.032,338.407 888.032,123.206 982.635,123.206 982.635,338.407 " />
<polygon stroke="black" stroke-width="1" fill="rgb(204, 204, 204)" fill-opacity="0.25" points="888.032,338.407 888.032,123.206 982.635,123.206 982.635,338.407 " />
<polygon stroke="black" stroke-width="1" fill="rgb(204, 204, 204)" fill-opacity="0.25" points="982.635,338.407 982.635,123.206 888.032,123.206 888.032,338.407 " />
<polygon stroke="black" stroke-width="1" fill="rgb(204, 204, 204)" fill-opacity="0.25" points="982.635,338.407 982.635,123.206 888.032,123.206 888.032,338.407 " />
<polygon stroke="black" stroke-width="1" fill="rgb(204, 204, 204)" fill-opacity="0.25" points="888.032,27.036 982.635,27.036 982.635,121.639 888.032,121.639 " />
<polygon stroke="black" stroke-width="1" fill="rgb(204, 204, 204)" fill-opacity="0.25" points="982.635,27.036 888.032,27.036 888.032,121.639 982.635,121.639 " />
<polygon stroke="black" stroke-width="1" fill="rgb(204, 204, 204)" fill-opacity="0.25" points="982.635,438.550 982.635,388.583 888.032,388.583 888.032,438.550 " />
<polygon stroke="black" stroke-width="1" fill="rgb(204, 204, 204)" fill-opacity="0.25" points="982.635,438.550 982.635,388.583 888.032,388.583 888.032,438.550 " />
<polygon stroke="black" stroke-width="1" fill="rgb(204, 204, 204)" fill-opacity="0.25" points="888.032,438.550 888.032,388.583 982.635,388.583 982.635,438.550 " />
<polygon stroke="black" stroke-width="1" fill="rgb(204, 204, 204)" fill-opacity="0.25" points="888.032,438.550 888.032,388.583 982.635,388.583 982.635,438.550 " />
<polygon stroke="black" stroke-width="1" fill="rgb(204, 204, 204)" fill-opacity="0.25" points="982.635,388.583 982.635,338.407 888.032,338.407 888.032,388.583 " />
<polygon stroke="black" stroke-width="1" fill="rgb(204, 204, 204)" fill-opacity="0.25" points="982.635,388.583 982.635,338.407 888.032,338.407 888.032,388.583 " />
<polygon stroke="black" stroke-width="1" fill="rgb(204, 204, 204)" fill-opacity="0.25" points="888.032,388.583 888.032,338.407 982.635,338.407 982.635,388.583 " />
<polygon stroke="black" stroke-width="1" fill="rgb(204, 204, 204)" fill-opacity="0.25" points="888.032,388.583 888.032,338.407 982.635,338.407 982.635,388.583 " />
<polygon stroke="black" stroke-width="1" fill="rgb(204, 204, 204)" fill-opacity="0.25" points="888.032,338.407 888.032,123.206 982.635,123.206 982.635,338.407 " />
<polygon stroke="black" stroke-width="1" fill="rgb(204, 204, 204)" fill-opacity="0.25" points="888.032,338.407 888.032,123.206 982.635,123.206 982.635,338.407 " />
<polygon stroke="black" stroke-width="1" fill="rgb(204, 204, 204)" fill-opacity="0.25" points="982.635,338.407 982.635,123.206 888.032,123.206 888.032,338.407 " />
<polygon stroke="black" stroke-width="1" fill="rgb(204, 204, 204)" fill-opacity="0.25" points="982.635,338.407 982.635,123.206 888.032,123.206 888.032,338.407 " />
<polygon stroke="black" stroke-width="1" fill="rgb(204, 204, 204)" fill-opacity="0.25" points="888.032,27.036 982.635,27.036 982.635,121.639 888.032,121.639 " />
<polygon stroke="black" stroke-width="1" fill="rgb(204, 204, 204)" fill-opacity="0.25" points="982.635,27.036 888.032,27.036 888.032,121.639 982.635,121.639 " />
<polygon stroke="black" stroke-width="1" fill="rgb(204, 204, 204)" fill-opacity="0.25" points="982.635,438.550 982.635,388.583 888.032,388.583 888.032,438.550 " />
<polygon stroke="black" stroke-width="1" fill="rgb(204, 204, 204)" fill-opacity="0.25" points="982.635,438.550 982.635,388.583 888.032,388.583 888.032,438.550 " />
<polygon stroke="black" stroke-width="1" fill="rgb(204, 204, 204)" fill-opacity="0.25" points="888.032,438.550 888.032,388.583 982.635,388.583 982.635,438.550 " />
<polygon stroke="black" stroke-width="1" fill="rgb(204, 204, 204)" fill-opacity="0.25" points="888.032,438.550 888.032,388.583 982.635,388.583 982.635,438.550 " />
<polygon stroke="black" stroke-width="1" fill="rgb(204, 204, 204)" fill-opacity="0.25" points="982.635,388.583 982.635,338.407 888.032,338.407 888.032,388.583 " />
<polygon stroke="black" stroke-width="1" fill="rgb(204, 204, 204)" fill-opacity="0.25" points="982.635,388.583 982.635,338.407 888.032,338.407 888.032,388.583 " />
<polygon stroke="black" stroke-width="1" fill="rgb(204, 204, 204)" fill-opacity="0.25" points="888.032,388.583 888.032,338.407 982.635,338.407 982.635,388.583 " />
<polygon stroke="black" stroke-width="1" fill="rgb(204, 204, 204)" fill-opacity="0.25" points="888.032,388.583 888.032,338.407 982.635,338.407 982.635,388.583 " />
<polygon stroke="black" stroke-width="1" fill="rgb(204, 204, 204)" fill-opacity="0.25" points="888.032,338.407 888.032,123.206 982.635,123.206 982.635,338.407 " />
<polygon stroke="black" stroke-width="1" fill="rgb(204, 204, 204)" fill-opacity="0.25" points="888.032,338.407 888.032,123.206 982.635,123.206 982.635,338.407 " />
<polygon stroke="black" stroke-width="1" fill="rgb(204, 204, 204)" fill-opacity="0.25" points="982.635,338.407 982.635,123.206 888.032,123.206 888.032,338.407 " />
<polygon stroke="black" stroke-width="1" fill="rgb(204, 204, 204)" fill-opacity="0.25" points="982.635,338.407 982.635,123.206 888.032,123.206 888.032,338.407 " />
<polygon stroke="black" stroke-width="1" fill="rgb(204, 204, 204)" fill-opacity="0.25" points="888.032,27.036 982.635,27.036 982.635,121.639 888.032,121.639 " />
<polygon stroke="black" stroke-width="1" fill="rgb(204, 204, 204)" fill-opacity="0.25" points="982.635,27.036 888.032,27.036 888.032,121.639 982.635,121.639 " />
<polygon stroke="black" stroke-width="1" fill="rgb(204, 204, 204)" fill-opacity="0.25" points="982.635,438.550 982.635,388.583 888.032,388.583 888.032,438.550 " />
<polygon stroke="black" stroke-width="1" fill="rgb(204, 204, 204)" fill-opacity="0.25" points="982.635,438.550 982.635,388.583 888.032,388.583 888.032,438.550 " />
<polygon stroke="black" stroke-width="1" fill="rgb(204, 204, 204)" fill-opacity="0.25" points="888.032,438.550 888.032,388.583 982.635,388.583 982.635,438.550 " />
<polygon stroke="black" stroke-width="1" fill="rgb(204, 204, 204)" fill-opacity="0.25" points="888.032,438.550 888.032,388.583 982.635,388.583 982.635,438.550 " />
<polygon stroke="black" stroke-width="1" fill="rgb(204, 204, 204)" fill-opacity="0.25" points="982.635,388.583 982.635,338.407 888.032,338.407 888.032,388.583 " />
<polygon stroke="black" stroke-width="1" fill="rgb(204, 204, 204)" fill-opacity="0.25" points="982.635,388.583 982.635,338.407 888.032,338.407 888.032,388.583 " />
<polygon stroke="black" stroke-width="1" fill="rgb(204, 204, 204)" fill-opacity="0.25" points="888.032,388.583 888.032,338.407 982.635,338.407 982.635,388.583 " />
<polygon stroke="black" stroke-width="1" fill="rgb(204, 204, 204)" fill-opacity="0.25" points="888.032,388.583 888.032,338.407 982.635,338.407 982.635,388.583 " />
<polygon stroke="black" stroke-width="1" fill="rgb(204, 204, 204)" fill-opacity="0.25" points="888.032,338.407 888.032,123.206 982.635,123.206 982.635,338.407 " />
<polygon stroke="black" stroke-width="1" fill="rgb(204, 204, 204)" fill-opacity="0.25" points="888.032,338.407 888.032,123.206 982.635,123.206 982.635,338.407 " />
<polygon stroke="black" stroke-width="1" fill="rgb(204, 204, 204)" fill-opacity="0.25" points="982.635,338.407 982.635,123.206 888.032,123.206 888.032,338.407 " />
<polygon stroke="black" stroke-width="1" fill="rgb(204, 204, 204)" fill-opacity="0.25" points="982.635,338.407 982.635,123.206 888.032,123.206 888.032,338.407 " />
<polygon stroke="black" stroke-width="1" fill="rgb(204, 204, 204)" fill-opacity="0.25" points="888.032,27.036 982.635,27.036 982.635,121.639 888.032,121.639 " />
<polygon stroke="black" stroke-width="1" fill="rgb(204, 204, 204)" fill-opacity="0.25" points="982.635,27.036 888.032,27.036 888.032,121.639 982.635,121.639 " />
<polygon stroke="black" stroke-width="1" fill="rgb(204, 204, 204)" fill-opacity="0.25" points="982.635,438.550 982.635,388.583 888.032,388.583 888.032,438.550 " />
<polygon stroke="black" stroke-width="1" fill="rgb(204, 204, 204)" fill-opacity="0.25" points="982.635,438.550 982.635,388.583 888.032,388.583 888.032,438.550 " />
<polygon stroke="black" stroke-width="1" fill="rgb(204, 204, 204)" fill-opacity="0.25" points="888.032,438.550 888.032,388.583 982.635,388.583 982.635,438.550 " />
<polygon stroke="black" stroke-width="1" fill="rgb(204, 204, 204)" fill-opacity="0.25" points="888.032,438.550 888.032,388.583 982.635,388.583 982.635,438.550 " />
<polygon stroke="black" stroke-width="1" fill="rgb(204, 204, 204)" fill-opacity="0.25" points="982.635,388.583 982.635,338.407 888.032,338.407 888.032,388.583 " />
<polygon stroke="black" stroke-width="1" fill="rgb(204, 204, 204)" fill-opacity="0.25" points="982.635,388.583 982.635,338.407 888.032,338.407 888.032,388.583 " />
<polygon stroke="black" stroke-width="1" fill="rgb(204, 204, 204)" fill-opacity="0.25" points="888.032,388.583 888.032,338.407 982.635,338.407 982.635,388.583 " />
<polygon stroke="black" stroke-width="1" fill="rgb(204, 204, 204)" fill-opacity="0.25" points="888.032,388.583 888.032,338.407 982.635,338.407 982.635,388.583 " />
<polygon stroke="black" stroke-width="1" fill="rgb(204, 204, 204)" fill-opacity="0.25" points="888.032,338.407 888.032,123.206 982.635,123.206 982.635,338.407 " />
<polygon stroke="black" stroke-width="1" fill="rgb(204, 204, 204)" fill-opacity="0.25" points="888.032,338.407 888.032,123.206 982.635,123.206 982.635,338.407 " />
<polygon stroke="black" stroke-width="1" fill="rgb(204, 204, 204)" fill-opacity="0.25" points="982.635,338.407 982.635,123.206 888.032,123.206 888.032,338.407 " />
<polygon stroke="black" stroke-width="1" fill="rgb(204, 204, 204)" fill-opacity="0.25" points="982.635,338.407 982.635,123.206 888.032,123.206 888.032,338.407 " />
<polygon stroke="black" stroke-width="1" fill="rgb(204, 204, 204)" fill-opacity="0.25" points="888.032,27.036 982.635,27.036 982.635,121.639 888.032,121.639 " />
<polygon stroke="black" stroke-width="1" fill="rgb(204, 204, 204)" fill-opacity="0.25" points="982.635,27.036 888.032,27.036 888.032,121.639 982.635,121.639 " />
<polygon stroke="black" stroke-width="1" fill="rgb(204, 204, 204)" fill-opacity="0.25" points="982.635,438.550 982.635,388.583 888.032,388.583 888.032,438.550 " />
<polygon stroke="black" stroke-width="1" fill="rgb(204, 204, 204)" fill-opacity="0.25" points="982.635,438.550 982.635,388.583 888.032,388.583 888.032,438.550 " />
<polygon stroke="black" stroke-width="1" fill="rgb(204, 204, 204)" fill-opacity="0.25" points="888.032,438.550 888.032,388.583 982.635,388.583 982.635,438.550 " />
<polygon stroke="black" stroke-width="1" fill="rgb(204, 204, 204)" fill-opacity="0.25" points="888.032,438.550 888.032,388.583 982.635,388.583 982.635,438.550 " />
<polygon stroke="black" stroke-width="1" fill="rgb(204, 204, 204)" fill-opacity="0.25" points="982.635,388.583 982.635,338.407 888.032,338.407 888.032,388.583 " />
<polygon stroke="black" stroke-width="1" fill="rgb(204, 204, 204)" fill-opacity="0.25" points="982.635,388.583 982.635,338.407 888.032,338.407 888.032,388.583 " />
<polygon stroke="black" stroke-width="1" fill="rgb(204, 204, 204)" fill-opacity="0.25" points="888.032,388.583 888.032,338.407 982.635,338.407 982.635,388.583 " />
<polygon stroke="black" stroke-width="1" fill="rgb(204, 204, 204)" fill-opacity="0.25" points="888.032,388.583 888.032,338.407 982.635,338.407 982.635,388.583 " />
<polygon stroke="black" stroke-width="1" fill="rgb(204, 204, 204)" fill-opacity="0.25" points="888.032,338.407 888.032,123.206 982.635,123.206 982.635,338.407 " />
<polygon stroke="black" stroke-width="1" fill="rgb(204, 204, 204)" fill-opacity="0.25" points="888.032,338.407 888.032,123.206 982.635,123.206 982.635,338.407 " />
<polygon stroke="black" stroke-width="1" fill="rgb(204, 204, 204)" fill-opacity="0.25" points="982.635,338.407 982.635,123.206 888.032,123.206 888.032,338.407 " />
<polygon stroke="black" stroke-width="1" fill="rgb(204, 204, 204)" fill-opacity="0.25" points="982.635,338.407 982.635,123.206 888.032,123.206 888.032,338.407 " />
<polygon stroke="black" stroke-width="1" fill="rgb(204, 204, 204)" fill-opacity="0.25" points="888.032,27.036 982.635,27.036 982.635,121.639 888.032,121.639 " />
<polygon stroke="black" stroke-width="1" fill="rgb(204, 204, 204)" fill-opacity="0.25" points="982.635,27.036 888.032,27.036 888.032,121.639 982.635,121.639 " />
<polygon stroke="black" stroke-width="1" fill="rgb(204, 204, 204)" fill-opacity="0.25" points="982.635,438.550 982.635,388.583 888.032,388.583 888.032,438.550 " />
<polygon stroke="black" stroke-width="1" fill="rgb(204, 204, 204)" fill-opacity="0.25" points="982.635,438.550 982.635,388.583 888.032,388.583 888.032,438.550 " />
<polygon stroke="black" stroke-width="1" fill="rgb(204, 204, 204)" fill-opacity="0.25" points="888.032,438.550 888.032,388.583 982.635,388.583 982.635,438.550 " />
<polygon stroke="black" stroke-width="1" fill="rgb(204, 204, 204)" fill-opacity="0.25" points="888.032,438.550 888.032,388.583 982.635,388.583 982.635,438.550 " />
<polygon stroke="black" stroke-width="1" fill="rgb(204, 204, 204)" fill-opacity="0.25" points="982.635,388.583 982.635,338.407 888.032,338.407 888.032,388.583 " />
<polygon stroke="black" stroke-width="1" fill="rgb(204, 204, 204)" fill-opacity="0.25" points="982.635,388.583 982.635,338.407 888.032,338.407 888.032,388.583 " />
<polygon stroke="black" stroke-width="1" fill="rgb(204, 204, 204)" fill-opacity="0.25" points="888.032,388.583 888.032,338.407 982.635,338.407 982.635,388.583 " />
<polygon stroke="black" stroke-width="1" fill="rgb(204, 204, 204)" fill-opacity="0.25" points="888.032,388.583 888.032,338.407 982.635,338.407 982.635,388.583 " />
<polygon stroke="black" stroke-width="1" fill="rgb(204, 204, 204)" fill-opacity="0.25" points="888.032,338.407 888.032,123.206 982.635,123.206 982.635,338.407 " />
<polygon stroke="black" stroke-width="1" fill="rgb(204, 204, 204)" fill-opacity="0.25" points="888.032,338.407 888.032,123.206 982.635,123.206 982.635,338.407 " />
<polygon stroke="black" stroke-width="1" fill="rgb(204, 204, 204)" fill-opacity="0.25" points="982.635,338.407 982.635,123.206 888.032,123.206 888.032,338.407 " />
<polygon stroke="black" stroke-width="1" fill="rgb(204, 204, 204)" fill-opacity="0.25" points="982.635,338.407 982.635,123.206 888.032,123.206 888.032,338.407 " />
<polygon stroke="black" stroke-width="1" fill="rgb(204, 204, 204)" fill-opacity="0.25" points="888.032,27.036 982.635,27.036 982.635,121.639 888.032,121.639 " />
<polygon stroke="black" stroke-width="1" fill="rgb(204, 204, 204)" fill-opacity="0.25" points="982.635,27.036 888.032,27.036 888.032,121.639 982.635,121.639 " />
<polygon stroke="black" stroke-width="1" fill="rgb(204, 204, 204)" fill-opacity="0.25" points="982.635,438.550 982.635,388.583 888.032,388.583 888.032,438.550 " />
<polygon stroke="black" stroke-width="1" fill="rgb(204, 204, 204)" fill-opacity="0.25" points="982.635,438.550 982.635,388.583 888.032,388.583 888.032,438.550 " />
<polygon stroke="black" stroke-width="1" fill="rgb(204, 204, 204)" fill-opacity="0.25" points="888.032,438.550 888.032,388.583 982.635,388.583 982.635,438.550 " />
<polygon stroke="black" stroke-width="1" fill="rgb(204, 204, 204)" fill-opacity="0.25" points="888.032,438.550 888.032,388.583 982.635,388.583 982.635,438.550 " />
<polygon stroke="black" stroke-width="1" fill="rgb(204, 204, 204)" fill-opacity="0.25" points="982.635,388.583 982.635,338.407 888.032,338.407 888.032,388.583 " />
<polygon stroke="black" stroke-width="1" fill="rgb(204, 204, 204)" fill-opacity="0.25" points="982.635,388.583 982.635,338.407 888.032,338.407 888.032,388.583 " />
<polygon stroke="black" stroke-width="1" fill="rgb(204, 204, 204)" fill-opacity="0.25" points="888.032,388.583 888.032,338.407 982.635,338.407 982.635,388.583 " />
<polygon stroke="black" stroke-width="1" fill="rgb(204, 204, 204)" fill-opacity="0.25" points="888.032,388.583 888.032,338.407 982.635,338.407 982.635,388.583 " />
<polygon stroke="black" stroke-width="1" fill="rgb(204, 204, 204)" fill-opacity="0.25" points="888.032,338.407 888.032,123.206 982.635,123.206 982.635,338.407 " />
<polygon stroke="black" stroke-width="1" fill="rgb(204, 204, 204)" fill-opacity="0.25" points="888.032,338.407 888.032,123.206 982.635,123.206 982.635,338.407 " />
<polygon stroke="black" stroke-width="1" fill="rgb(204, 204, 204)" fill-opacity="0.25" points="982.635,338.407 982.635,123.206 888.032,123.206 888.032,338.407 " />
<polygon stroke="black" stroke-width="1" fill="rgb(204, 204, 204)" fill-opacity="0.25" points="982.635,338.407 982.635,123.206 888.032,123.206 888.032,338.407 " />
<polygon stroke="black" stroke-width="1" fill="rgb(204, 204, 204)" fill-opacity="0.25" points="888.032,27.036 982.635,27.036 982.635,121.639 888.032,121.639 " />
<polygon stroke="black" stroke-width="1" fill="rgb(204, 204, 204)" fill-opacity="0.25" points="982.635,27.036 888.032,27.036 888.032,121.639 982.635,121.639 " />
<polygon stroke="black" stroke-width="1" fill="rgb(204, 204, 204)" fill-opacity="0.25" points="982.635,438.550 982.635,388.583 888.032,388.583 888.032,438.550 " />
<polygon stroke="black" stroke-width="1" fill="rgb(204, 204, 204)" fill-opacity="0.25" points="982.635,438.550 982.635,388.583 888.032,388.583 888.032,438.550 " />
<polygon stroke="black" stroke-width="1" fill="rgb(204, 204, 204)" fill-opacity="0.25" points="888.032,438.550 888.032,388.583 982.635,388.583 982.635,438.550 " />
<polygon stroke="black" stroke-width="1" fill="rgb(204, 204, 204)" fill-opacity="0.25" points="888.032,438.550 888.032,388.583 982.635,388.583 982.635,438.550 " />
<polygon stroke="black" stroke-width="1" fill="rgb(204, 204, 204)" fill-opacity="0.25" points="982.635,388.583 982.635,338.407 888.032,338.407 888.032,388.583 " />
<polygon stroke="black" stroke-width="1" fill="rgb(204, 204, 204)" fill-opacity="0.25" points="982.635,388.583 982.635,338.407 888.032,338.407 888.032,388.583 " />
<polygon stroke="black" stroke-width="1" fill="rgb(204, 204, 204)" fill-opacity="0.25" points="888.032,388.583 888.032,338.407 982.635,338.407 982.635,388.583 " />
<polygon stroke="black" stroke-width="1" fill="rgb(204, 204, 204)" fill-opacity="0.25" points="888.032,388.583 888.032,338.407 982.635,338.407 982.635,388.583 " />
<polygon stroke="black" stroke-width="1" fill="rgb(204, 204, 204)" fill-opacity="0.25" points="888.032,338.407 888.032,123.206 982.635,123.206 982.635,338.407 " />
<polygon stroke="black" stroke-width="1" fill="rgb(204, 204, 204)" fill-opacity="0.25" points="888.032,338.407 888.032,123.206 982.635,123.206 982.635,338.407 " />
<polygon stroke="black" stroke-width="1" fill="rgb(204, 204, 204)" fill-opacity="0.25" points="982.635,338.407 982.635,123.206 888.032,123.206 888.032,338.407 " />
<polygon stroke="black" stroke-width="1" fill="rgb(204, 204, 204)" fill-opacity="0.25" points="982.635,338.407 982.635,123.206 888.032,123.206 888.032,338.407 " />
<polygon stroke="black" stroke-width="1" fill="rgb(204, 204, 204)" fill-opacity="0.25" points="888.032,27.036 982.635,27.036 982.635,121.639 888.032,121.639 " />
<polygon stroke="black" stroke-width="1" fill="rgb(204, 204, 204)" fill-opacity="0.25" points="982.635,27.036 888.032,27.036 888.032,121.639 982.635,121.639 " />
<polygon stroke="black" stroke-width="1" fill="rgb(204, 204, 204)" fill-opacity="0.25" points="982.635,438.550 982.635,388.583 888.032,388.583 888.032,438.550 " />
<polygon stroke="black" stroke-width="1" fill="rgb(204, 204, 204)" fill-opacity="0.25" points="982.635,438.550 982.635,388.583 888.032,388.583 888.032,438.550 " />
<polygon stroke="black" stroke-width="1" fill="rgb(204, 204, 204)" fill-opacity="0.25" points="888.032,438.550 888.032,388.583 982.635,388.583 982.635,438.550 " />
<polygon stroke="black" stroke-width="1" fill="rgb(204, 204, 204)" fill-opacity="0.25" points="888.032,438.550 888.032,388.583 982.635,388.583 982.635,438.550 " />
<polygon stroke="black" stroke-width="1" fill="rgb(204, 204, 204)" fill-opacity="0.25" points="982.635,388.583 982.635,338.407 888.032,338.407 888.032,388.583 " />
<polygon stroke="black" stroke-width="1" fill="rgb(204, 204, 204)" fill-opacity="0.25" points="982.635,388.583 982.635,338.407 888.032,338.407 888.032,388.583 " />
<polygon stroke="black" stroke-width="1" fill="rgb(204, 204, 204)" fill-opacity="0.25" points="888.032,388.583 888.032,338.407 982.635,338.407 982.635,388.583 " />
<polygon stroke="black" stroke-width="1" fill="rgb(204, 204, 204)" fill-opacity="0.25" points="888.032,388.583 888.032,338.407 982.635,338.407 982.635,388.583 " />
<polygon stroke="black" stroke-width="1" fill="rgb(204, 204, 204)" fill-opacity="0.25" points="888.032,338.407 888.032,123.206 982.635,123.206 982.635,338.407 " />
<polygon stroke="black" stroke-width="1" fill="rgb(204, 204, 204)" fill-opacity="0.25" points="888.032,338.407 888.032,123.206 982.635,123.206 982.635,338.407 " />
<polygon stroke="black" stroke-width="1" fill="rgb(204, 204, 204)" fill-opacity="0.25" points="982.635,338.407 982.635,123.206 888.032,123.206 888.032,338.407 " />
<polygon stroke="black" stroke-width="1" fill="rgb(204, 204, 204)" fill-opacity="0.25" points="982.635,338.407 982.635,123.206 888.032,123.206 888.032,338.407 " />
<polygon stroke="black" stroke-width="1" fill="rgb(204, 204, 204)" fill-opacity="0.25" points="888.032,27.036 982.635,27.036 982.635,121.639 888.032,121.639 " />
<polygon stroke="black" stroke-width="1" fill="rgb(204, 204, 204)" fill-opacity="0.25" points="982.635,27.036 888.032,27.036 888.032,121.639 982.635,121.639 " />
<polygon stroke="black" stroke-width="1" fill="rgb(204, 204, 204)" fill-opacity="0.25" points="982.635,438.550 982.635,388.583 888.032,388.583 888.032,438.550 " />
<polygon stroke="black" stroke-width="1" fill="rgb(204, 204, 204)" fill-opacity="0.25" points="982.635,438.550 982.635,388.583 888.032,388.583 888.032,438.550 " />
<polygon stroke="black" stroke-width="1" fill="rgb(204, 204, 204)" fill-opacity="0.25" points="888.032,438.550 888.032,388.583 982.635,388.583 982.635,438.550 " />
<polygon stroke="black" stroke-width="1" fill="rgb(204, 204, 204)" fill-opacity="0.25" points="888.032,438.550 888.032,388.583 982.635,388.583 982.635,438.550 " />
<polygon stroke="black" stroke-width="1" fill="rgb(204, 204, 204)" fill-opacity="0.25" points="982.635,388.583 982.635,338.407 888.032,338.407 888.032,388.583 " />
<polygon stroke="black" stroke-width="1" fill="rgb(204, 204, 204)" fill-opacity="0.25" points="982.635,388.583 982.635,338.407 888.032,338.407 888.032,388.583 " />
<polygon stroke="black" stroke-width="1" fill="rgb(204, 204, 204)" fill-opacity="0.25" points="888.032,388.583 888.032,338.407 982.635,338.407 982.635,388.583 " />
<polygon stroke="black" stroke-width="1" fill="rgb(204, 204, 204)" fill-opacity="0.25" points="888.032,388.583 888.032,338.407 982.635,338.407 982.635,388.583 " />
<polygon stroke="black" stroke-width="1" fill="rgb(204, 204, 204)" fill-opacity="0.25" points="564.466,42.917 455.696,230.620 347.526,42.573 " />
<polygon stroke="black" stroke-width="1" fill="rgb(204, 204, 204)" fill-opacity="0.25" points="455.696,230.620 672.636,230.964 563.865,418.667 " />
<polygon stroke="black" stroke-width="1" fill="rgb(204, 204, 204)" fill-opacity="0.25" points="997.146,795.105 888.375,982.808 780.205,794.761 " />
<polygon stroke="black" stroke-width="1" fill="rgb(204, 204, 204)" fill-opacity="0.25" points="888.976,607.058 780.205,794.761 672.035,606.714 " />
<polygon stroke="black" stroke-width="1" fill="rgb(204, 204, 204)" fill-opacity="0.25" points="780.806,419.011 672.035,606.714 563.865,418.667 " />
<polygon stroke="black" stroke-width="1" fill="rgb(204, 204, 204)" fill-opacity="0.25" points="455.696,230.620 563.865,418.667 346.926,418.322 " />
<polygon stroke="black" stroke-width="1" fill="rgb(204, 204, 204)" fill-opacity="0.25" points="347.526,42.573 455.696,230.620 238.756,230.275 " />
<polygon stroke="black" stroke-width="1" fill="rgb(204, 204, 204)" fill-opacity="0.25" points="780.205,794.761 888.375,982.808 671.436,982.463 " />
<polygon stroke="black" stroke-width="1" fill="rgb(204, 204, 204)" fill-opacity="0.25" points="672.035,606.714 780.205,794.761 563.266,794.416 " />
<polygon stroke="black" stroke-width="1" fill="rgb(204, 204, 204)" fill-opacity="0.25" points="563.865,418.667 672.035,606.714 455.096,606.369 " />
<polygon stroke="black" stroke-width="1" fill="rgb(204, 204, 204)" fill-opacity="0.25" points="455.696,230.620 346.926,418.322 238.756,230.275 " />
<polygon stroke="black" stroke-width="1" fill="rgb(204, 204, 204)" fill-opacity="0.25" points="347.526,42.573 238.756,230.275 130.586,42.227 " />
<polygon stroke="black" stroke-width="1" fill="rgb(204, 204, 204)" fill-opacity="0.25" points="780.205,794.761 671.436,982.463 563.266,794.416 " />
<polygon stroke="black" stroke-width="1" fill="rgb(204, 204, 204)" fill-opacity="0.25" points="672.035,606.714 563.266,794.416 455.096,606.369 " />
<polygon stroke="black" stroke-width="1" fill="rgb(204, 204, 204)" fill-opacity="0.25" points="563.865,418.667 455.096,606.369 346.926,418.322 " />
<polygon stroke="black" stroke-width="1" fill="rgb(204, 204, 204)" fill-opacity="0.25" points="238.756,230.275 346.926,418.322 129.986,417.977 " />
<polygon stroke="black" stroke-width="1" fill="rgb(204, 204, 204)" fill-opacity="0.25" points="130.586,42.227 238.756,230.275 21.816,229.930 " />
<polygon stroke="black" stroke-width="1" fill="rgb(204, 204, 204)" fill-opacity="0.25" points="563.266,794.416 671.436,982.463 454.495,982.118 " />
<polygon stroke="black" stroke-width="1" fill="rgb(204, 204, 204)" fill-opacity="0.25" points="455.096,606.369 563.266,794.416 346.325,794.071 " />
<polygon stroke="black" stroke-width="1" fill="rgb(204, 204, 204)" fill-opacity="0.25" points="346.926,418.322 455.096,606.369 238.155,606.024 " />
<polygon stroke="black" stroke-width="1" fill="rgb(204, 204, 204)" fill-opacity="0.25" points="888.032,338.407 888.032,123.206 982.635,123.206 982.635,338.407 " />
<polygon stroke="black" stroke-width="1" fill="rgb(204, 204, 204)" fill-opacity="0.25" points="982.635,338.407 982.635,123.206 888.032,123.206 888.032,338.407 " />
<polygon stroke="black" stroke-width="1" fill="rgb(204, 204, 204)" fill-opacity="0.25" points="888.032,27.036 982.635,27.036 982.635,121.639 888.032,121.639 " />
<polygon stroke="black" stroke-width="1" fill="rgb(204, 204, 204)" fill-opacity="0.25" points="982.635,438.550 982.635,388.583 888.032,388.583 888.032,438.550 " />
<polygon stroke="black" stroke-width="1" fill="rgb(204, 204, 204)" fill-opacity="0.25" points="888.032,438.550 888.032,388.583 982.635,388.583 982.635,438.550 " />
<polygon stroke="black" stroke-width="1" fill="rgb(204, 204, 204)" fill-opacity="0.25" points="982.635,388.583 982.635,338.407 888.032,338.407 888.032,388.583 " />
<polygon stroke="black" stroke-width="1" fill="rgb(204, 204, 204)" fill-opacity="0.25" points="888.032,388.583 888.032,338.407 982.635,338.407 982.635,388.583 " />
<polygon stroke="black" stroke-width="1" fill="rgb(204, 204, 204)" fill-opacity="0.25" points="982.635,338.407 982.635,123.206 888.032,123.206 888.032,338.407 " />
<polygon stroke="black" stroke-width="1" fill="rgb(204, 204, 204)" fill-opacity="0.25" points="982.635,338.407 982.635,123.206 888.032,123.206 888.032,338.407 " />
<polygon stroke="black" stroke-width="1" fill="rgb(204, 204, 204)" fill-opacity="0.25" points="888.032,27.036 982.635,27.036 982.635,121.639 888.032,121.639 " />
<polygon stroke="black" stroke-width="1" fill="rgb(204, 204, 204)" fill-opacity="0.25" points="982.635,438.550 982.635,388.583 888.032,388.583 888.032,438.550 " />
<polygon stroke="black" stroke-width="1" fill="rgb(204, 204, 204)" fill-opacity="0.25" points="982.635,438.550 982.635,388.583 888.032,388.583 888.032,438.550 " />
<polygon stroke="black" stroke-width="1" fill="rgb(204, 204, 204)" fill-opacity="0.25" points="982.635,388.583 982.635,338.407 888.032,338.407 888.032,388.583 " />
<polygon stroke="black" stroke-width="1" fill="rgb(204, 204, 204)" fill-opacity="0.25" points="982.635,388.583 982.635,338.407 888.032,338.407 888.032,388.583 " />
<polygon stroke="black" stroke-width="1" fill="rgb(204, 204, 204)" fill-opacity="0.25" points="982.635,338.407 982.635,123.206 888.032,123.206 888.032,338.407 " />
<polygon stroke="black" stroke-width="1" fill="rgb(204, 204, 204)" fill-opacity="0.25" points="982.635,338.407 982.635,123.206 888.032,123.206 888.032,338.407 " />
<polygon stroke="black" stroke-width="1" fill="rgb(204, 204, 204)" fill-opacity="0.25" points="982.635,27.036 888.032,27.036 888.032,121.639 982.635,121.639 " />
<polygon stroke="black" stroke-width="1" fill="rgb(204, 204, 204)" fill-opacity="0.25" points="982.635,438.550 982.635,388.583 888.032,388.583 888.032,438.550 " />
<polygon stroke="black" stroke-width="1" fill="rgb(204, 204, 204)" fill-opacity="0.25" points="982.635,438.550 982.635,388.583 888.032,388.583 888.032,438.550 " />
<polygon stroke="black" stroke-width="1" fill="rgb(204, 204, 204)" fill-opacity="0.25" points="982.635,388.583 982.635,338.407 888.032,338.407 888.032,388.583 " />
<polygon stroke="black" stroke-width="1" fill="rgb(204, 204, 204)" fill-opacity="0.25" points="982.635,388.583 982.635,338.407 888.032,338.407 888.032,388.583 " />
<polygon stroke="black" stroke-width="1" fill="rgb(204, 204, 204)" fill-opacity="0.25" points="888.032,338.407 888.032,123.206 982.635,123.206 982.635,338.407 " />
<polygon stroke="black" stroke-width="1" fill="rgb(204, 204, 204)" fill-opacity="0.25" points="982.635,338.407 982.635,123.206 888.032,123.206 888.032,338.407 " />
<polygon stroke="black" stroke-width="1" fill="rgb(204, 204, 204)" fill-opacity="0.25" points="982.635,27.036 888.032,27.036 888.032,121.639 982.635,121.639 " />
<polygon stroke="black" stroke-width="1" fill="rgb(204, 204, 204)" fill-opacity="0.25" points="982.635,438.550 982.635,388.583 888.032,388.583 888.032,438.550 " />
<polygon stroke="black" stroke-width="1" fill="rgb(204, 204, 204)" fill-opacity="0.25" points="888.032,438.550 888.032,388.583 982.635,388.583 982.635,438.550 " />
<polygon stroke="black" stroke-width="1" fill="rgb(204, 204, 204)" fill-opacity="0.25" points="982.635,388.583 982.635,338.407 888.032,338.407 888.032,388.583 " />
<polygon stroke="black" stroke-width="1" fill="rgb(204, 204, 204)" fill-opacity="0.25" points="888.032,388.583 888.032,338.407 982.635,338.407 982.635,388.583 " />
<polygon stroke="black" stroke-width="1" fill="rgb(204, 204, 204)" fill-opacity="0.25" points="888.032,338.407 888.032,123.206 982.635,123.206 982.635,338.407 " />
<polygon stroke="black" stroke-width="1" fill="rgb(204, 204, 204)" fill-opacity="0.25" points="888.032,338.407 888.032,123.206 982.635,123.206 982.635,338.407 " />
<polygon stroke="black" stroke-width="1" fill="rgb(204, 204, 204)" fill-opacity="0.25" points="888.032,27.036 982.635,27.036 982.635,121.639 888.032,121.639 " />
<polygon stroke="black" stroke-width="1" fill="rgb(204, 204, 204)" fill-opacity="0.25" points="888.032,438.550 888.032,388.583 982.635,388.583 982.635,438.550 " />
<polygon stroke="black" stroke-width="1" fill="rgb(204, 204, 204)" fill-opacity="0.25" points="888.032,438.550 888.032,388.583 982.635,388.583 982.635,438.550 " />
<polygon stroke="black" stroke-width="1" fill="rgb(204, 204, 204)" fill-opacity="0.25" points="888.032,388.583 888.032,338.407 982.635,338.407 982.635,388.583 " />
<polygon stroke="black" stroke-width="1" fill="rgb(204, 204, 204)" fill-opacity="0.25" points="888.032,388.583 888.032,338.407 982.635,338.407 982.635,388.583 " />

</svg>
