<?xml version="1.0" standalone="no"?>
<!DOCTYPE svg PUBLIC "-//W3C//DTD SVG 1.1//EN" 
  "http://www.w3.org/Graphics/SVG/1.1/DTD/svg11.dtd">
<svg width="1024" height="1024" viewBox="0 0 1024 1024"
     xmlns="http://www.w3.org/2000/svg" version="1.1">
<desc>mine.blend, (Blender 2.83.5)</desc>
<polygon stroke="black" stroke-width="1" fill="rgb(204, 204, 204)" fill-opacity="0.25" points="888.032,338.407 888.032,123.206 982.635,123.206 982.635,338.407 " />
<polygon stroke="black" stroke-width="1" fill="rgb(204, 204, 204)" fill-opacity="0.25" points="888.032,338.407 888.032,123.206 982.635,123.206 982.635,338.407 " />
<polygon stroke="black" stroke-width="1" fill="rgb(204, 204, 204)" fill-opacity="0.25" points="982.635,338.407 982.635,123.206 888.032,123.206 888.032,338.407 " />
<polygon stroke="black" stroke-width="1" fill="rgb(204, 204, 204)" fill-opacity="0.25" points="982.635,338.407 982.635,123.206 888.032,123.206 888.032,338.407 " />
<polygon stroke="black" stroke-width="1" fill="rgb(204, 204, 204)" fill-opacity="0.25" points="888.032,27.036 982.635,27.036 982.635,121.639 888.032,121.639 " />
<polygon stroke="black" stroke-width="1" fill="rgb(204, 204, 204)" fill-opacity="0.25" points="982.635,27.036 888.032,27.036 888.032,121.639 982.635,121.639 " />
<polygon stroke="black" stroke-width="1" fill="rgb(204, 204, 204)" fill-opacity="0.25" points="982.635,438.550 982.635,388.583 888.032,388.583 888.032,438.550 " />
<polygon stroke="black" stroke-width="1" fill="rgb(204, 204, 204)" fill-opacity="0.25" points="982.635,438.550 982.635,388.583 888.032,388.583 888.032,438.550 " />
<polygon stroke="black" stroke-width="1" fill="rgb(204, 204, 204)" fill-opacity="0.25" points="888.032,438.550 888.032,388.583 982.635,388.583 982.635,438.550 " />
<polygon stroke="black" stroke-width="1" fill="rgb(204, 204, 204)" fill-opacity="0.25" points="888.032,438.550 888.032,388.583 982.635,388.583 982.635,438.550 " />
<polygon stroke="black" stroke-width="1" fill="rgb(204, 204, 204)" fill-opacity="0.25" points="982.635,388.583 982.635,338.407 888.032,338.407 888.032,388.583 " />
<polygon stroke="black" stroke-width="1" fill="rgb(204, 204, 204)" fill-opacity="0.25" points="982.635,388.583 982.635,338.407 888.032,338.407 888.032,388.583 " />
<polygon stroke="black" stroke-width="1" fill="rgb(204, 204, 204)" fill-opacity="0.25" points="888.032,388.583 888.032,338.407 982.635,338.407 982.635,388.583 " />
<polygon stroke="black" stroke-width="1" fill="rgb(204, 204, 204)" fill-opacity="0.25" points="888.032,388.583 888.032,338.407 982.635,338.407 982.635,388.583 " />
<polygon stroke="black" stroke-width="1" fill="rgb(204, 204, 204)" fill-opacity="0.25" points="888.032,338.407 888.032,123.206 982.635,123.206 982.635,338.407 " />
<polygon stroke="black" stroke-width="1" fill="rgb(204, 204, 204)" fill-opacity="0.25" points="888.032,338.407 888.032,123.206 982.635,123.206 982.635,338.407 " />
<polygon stroke="black" stroke-width="1" fill="rgb(204, 204, 204)" fill-opacity="0.25" points="982.635,338.407 982.635,123.206 888.032,123.206 888.032,338.407 " />
<polygon stroke="black" stroke-width="1" fill="rgb(204, 204, 204)" fill-opacity="0.25" points="982.635,338.407 982.635,123.206 888.032,123.206 888.032,338.407 " />
<polygon stroke="black" stroke-width="1" fill="rgb(204, 204, 204)" fill-opacity="0.25" points="888.032,27.036 982.635,27.036 982.635,121.639 888.032,121.639 " />
<polygon stroke="black" stroke-width="1" fill="rgb(204, 204, 204)" fill-opacity="0.25" points="982.635,27.036 888.032,27.036 888.032,121.639 982.635,121.639 " />
<polygon stroke="black" stroke-width="1" fill="rgb(204, 204, 204)" fill-opacity="0.25" points="982.635,438.550 982.635,388.583 888.032,388.583 888.032,438.550 " />
<polygon stroke="black" stroke-width="1" fill="rgb(204, 204, 204)" fill-opacity="0.25" points="982.635,438.550 982.635,388.583 888.032,388.583 888.032,438.550 " />
<polygon stroke="black" stroke-width="1" fill="rgb(204, 204, 204)" fill-opacity="0.25" points="888.032,438.550 888.032,388.583 982.635,388.583 982.635,438.550 " />
<polygon stroke="black" stroke-width="1" fill="rgb(204, 204, 204)" fill-opacity="0.25" points="888.032,438.550 888.032,388.583 982.635,388.583 982.635,438.550 " />
<polygon stroke="black" stroke-width="1" fill="rgb(204, 204, 204)" fill-opacity="0.25" points="982.635,388.583 982.635,338.407 888.032,338.407 888.032,388.583 " />
<polygon stroke="black" stroke-width="1" fill="rgb(204, 204, 204)" fill-opacity="0.25" points="982.635,388.583 982.635,338.407 888.032,338.407 888.032,388.583 " />
<polygon stroke="black" stroke-width="1" fill="rgb(204, 204, 204)" fill-opacity="0.25" points="888.032,388.583 888.032,338.407 982.635,338.407 982.635,388.583 " />
<polygon stroke="black" stroke-width="1" fill="rgb(204, 204, 204)" fill-opacity="0.25" points="888.032,388.583 888.032,338.407 982.635,338.407 982.635,388.583 " />
<polygon stroke="black" stroke-width="1" fill="rgb(204, 204, 204)" fill-opacity="0.25" points="888.032,338.407 888.032,123.206 982.635,123.206 982.635,338.407 " />
<polygon stroke="black" stroke-width="1" fill="rgb(204, 204, 204)" fill-opacity="0.25" points="888.032,338.407 888.032,123.206 982.635,123.206 982.635,338.407 " />
<polygon stroke="black" stroke-width="1" fill="rgb(204, 204, 204)" fill-opacity="0.25" points="982.635,338.407 982.635,123.206 888.032,123.206 888.032,338.407 " />
<polygon stroke="black" stroke-width="1" fill="rgb(204, 204, 204)" fill-opacity="0.25" points="982.635,338.407 982.635,123.206 888.032,123.206 888.032,338.407 " />
<polygon stroke="black" stroke-width="1" fill="rgb(204, 204, 204)" fill-opacity="0.25" points="888.032,27.036 982.635,27.036 982.635,121.639 888.032,121.639 " />
<polygon stroke="black" stroke-width="1" fill="rgb(204, 204, 204)" fill-opacity="0.25" points="982.635,27.036 888.032,27.036 888.032,121.639 982.635,121.639 " />
<polygon stroke="black" stroke-width="1" fill="rgb(204, 204, 204)" fill-opacity="0.25" points="982.635,438.550 982.635,388.583 888.032,388.583 888.032,438.550 " />
<polygon stroke="black" stroke-width="1" fill="rgb(204, 204, 204)" fill-opacity="0.25" points="982.635,438.550 982.635,388.583 888.032,388.583 888.032,438.550 " />
<polygon stroke="black" stroke-width="1" fill="rgb(204, 204, 204)" fill-opacity="0.25" points="888.032,438.550 888.032,388.583 982.635,388.583 982.635,438.550 " />
<polygon stroke="black" stroke-width="1" fill="rgb(204, 204, 204)" fill-opacity="0.25" points="888.032,438.550 888.032,388.583 982.635,388.583 982.635,438.550 " />
<polygon stroke="black" stroke-width="1" fill="rgb(204, 204, 204)" fill-opacity="0.25" points="982.635,388.583 982.635,338.407 888.032,338.407 888.032,388.583 " />
<polygon stroke="black" stroke-width="1" fill="rgb(204, 204, 204)" fill-opacity="0.25" points="982.635,388.583 982.635,338.407 888.032,338.407 888.032,388.583 " />
<polygon stroke="black" stroke-width="1" fill="rgb(204, 204, 204)" fill-opacity="0.25" points="888.032,388.583 888.032,338.407 982.635,338.407 982.635,388.583 " />
<polygon stroke="black" stroke-width="1" fill="rgb(204, 204, 204)" fill-opacity="0.25" points="888.032,388.583 888.032,338.407 982.635,338.407 982.635,388.583 " />
<polygon stroke="black" stroke-width="1" fill="rgb(204, 204, 204)" fill-opacity="0.25" points="888.032,338.407 888.032,123.206 982.635,123.206 982.635,338.407 " />
<polygon stroke="black" stroke-width="1" fill="rgb(204, 204, 204)" fill-opacity="0.25" points="888.032,338.407 888.032,123.206 982.635,123.206 982.635,338.407 " />
<polygon stroke="black" stroke-width="1" fill="rgb(204, 204, 204)" fill-opacity="0.25" points="982.635,338.407 982.635,123.206 888.032,123.206 888.032,338.407 " />
<polygon stroke="black" stroke-width="1" fill="rgb(204, 204, 204)" fill-opacity="0.25" points="982.635,338.407 982.635,123.206 888.032,123.206 888.032,338.407 " />
<polygon stroke="black" stroke-width="1" fill="rgb(204, 204, 204)" fill-opacity="0.25" points="888.032,27.036 982.635,27.036 982.635,121.639 888.032,121.639 " />
<polygon stroke="black" stroke-width="1" fill="rgb(204, 204, 204)" fill-opacity="0.25" points="982.635,27.036 888.032,27.036 888.032,121.639 982.635,121.639 " />
<polygon stroke="black" stroke-width="1" fill="rgb(204, 204, 204)" fill-opacity="0.25" points="982.635,438.550 982.635,388.583 888.032,388.583 888.032,438.550 " />
<polygon stroke="black" stroke-width="1" fill="rgb(204, 204, 204)" fill-opacity="0.25" points="982.635,438.550 982.635,388.583 888.032,388.583 888.032,438.550 " />
<polygon stroke="black" stroke-width="1" fill="rgb(204, 204, 204)" fill-opacity="0.25" points="888.032,438.550 888.032,388.583 982.635,388.583 982.635,438.550 " />
<polygon stroke="black" stroke-width="1" fill="rgb(204, 204, 204)" fill-opacity="0.25" points="888.032,438.550 888.032,388.583 982.635,388.583 982.635,438.550 " />
<polygon stroke="black" stroke-width="1" fill="rgb(204, 204, 204)" fill-opacity="0.25" points="982.635,388.583 982.635,338.407 888.032,338.407 888.032,388.583 " />
<polygon stroke="black" stroke-width="1" fill="rgb(204, 204, 204)" fill-opacity="0.25" points="982.635,388.583 982.635,338.407 888.032,338.407 888.032,388.583 " />
<polygon stroke="black" stroke-width="1" fill="rgb(204, 204, 204)" fill-opacity="0.25" points="888.032,388.583 888.032,338.407 982.635,338.407 982.635,388.583 " />
<polygon stroke="black" stroke-width="1" fill="rgb(204, 204, 204)" fill-opacity="0.25" points="888.032,388.583 888.032,338.407 982.635,338.407 982.635,388.583 " />
<polygon stroke="black" stroke-width="1" fill="rgb(204, 204, 204)" fill-opacity="0.25" points="888.032,338.407 888.032,123.206 982.635,123.206 982.635,338.407 " />
<polygon stroke="black" stroke-width="1" fill="rgb(204, 204, 204)" fill-opacity="0.25" points="888.032,338.407 888.032,123.206 982.635,123.206 982.635,338.407 " />
<polygon stroke="black" stroke-width="1" fill="rgb(204, 204, 204)" fill-opacity="0.25" points="982.635,338.407 982.635,123.206 888.032,123.206 888.032,338.407 " />
<polygon stroke="black" stroke-width="1" fill="rgb(204, 204, 204)" fill-opacity="0.25" points="982.635,338.407 982.635,123.206 888.032,123.206 888.032,338.407 " />
<polygon stroke="black" stroke-width="1" fill="rgb(204, 204, 204)" fill-opacity="0.25" points="888.032,27.036 982.635,27.036 982.635,121.639 888.032,121.639 " />
<polygon stroke="black" stroke-width="1" fill="rgb(204, 204, 204)" fill-opacity="0.25" points="982.635,27.036 888.032,27.036 888.032,121.639 982.635,121.639 " />
<polygon stroke="black" stroke-width="1" fill="rgb(204, 204, 204)" fill-opacity="0.25" points="982.635,438.550 982.635,388.583 888.032,388.583 888.032,438.550 " />
<polygon stroke="black" stroke-width="1" fill="rgb(204, 204, 204)" fill-opacity="0.25" points="982.635,438.550 982.635,388.583 888.032,388.583 888.032,438.550 " />
<polygon stroke="black" stroke-width="1" fill="rgb(204, 204, 204)" fill-opacity="0.25" points="888.032,438.550 888.032,388.583 982.635,388.583 982.635,438.550 " />
<polygon stroke="black" stroke-width="1" fill="rgb(204, 204, 204)" fill-opacity="0.25" points="888.032,438.550 888.032,388.583 982.635,388.583 982.635,438.550 " />
<polygon stroke="black" stroke-width="1" fill="rgb(204, 204, 204)" fill-opacity="0.25" points="982.635,388.583 982.635,338.407 888.032,338.407 888.032,388.583 " />
<polygon stroke="black" stroke-width="1" fill="rgb(204, 204, 204)" fill-opacity="0.25" points="982.635,388.583 982.635,338.407 888.032,338.407 888.032,388.583 " />
<polygon stroke="black" stroke-width="1" fill="rgb(204, 204, 204)" fill-opacity="0.25" points="888.032,388.583 888.032,338.407 982.635,338.407 982.635,388.583 " />
<polygon stroke="black" stroke-width="1" fill="rgb(204, 204, 204)" fill-opacity="0.25" points="888.032,388.583 888.032,338.407 982.635,338.407 982.635,388.583 " />
<polygon stroke="black" stroke-width="1" fill="rgb(204, 204, 204)" fill-opacity="0.25" points="888.032,338.407 888.032,123.206 982.635,123.206 982.635,338.407 " />
<polygon stroke="black" stroke-width="1" fill="rgb(204, 204, 204)" fill-opacity="0.25" points="888.032,338.407 888.032,123.206 982.635,123.206 982.635,338.407 " />
<polygon stroke="black" stroke-width="1" fill="rgb(204, 204, 204)" fill-opacity="0.25" points="982.635,338.407 982.635,123.206 888.032,123.206 888.032,338.407 " />
<polygon stroke="black" stroke-width="1" fill="rgb(204, 204, 204)" fill-opacity="0.25" points="982.635,338.407 982.635,123.206 888.032,123.206 888.032,338.407 " />
<polygon stroke="black" stroke-width="1" fill="rgb(204, 204, 204)" fill-opacity="0.25" points="888.032,27.036 982.635,27.036 982.635,121.639 888.032,121.639 " />
<polygon stroke="black" stroke-width="1" fill="rgb(204, 204, 204)" fill-opacity="0.25" points="982.635,27.036 888.032,27.036 888.032,121.639 982.635,121.639 " />
<polygon stroke="black" stroke-width="1" fill="rgb(204, 204, 204)" fill-opacity="0.25" points="982.635,438.550 982.635,388.583 888.032,388.583 888.032,438.550 " />
<polygon stroke="black" stroke-width="1" fill="rgb(204, 204, 204)" fill-opacity="0.25" points="982.635,438.550 982.635,388.583 888.032,388.583 888.032,438.550 " />
<polygon stroke="black" stroke-width="1" fill="rgb(204, 204, 204)" fill-opacity="0.25" points="888.032,438.550 888.032,388.583 982.635,388.583 982.635,438.550 " />
<polygon stroke="black" stroke-width="1" fill="rgb(204, 204, 204)" fill-opacity="0.25" points="888.032,438.550 888.032,388.583 982.635,388.583 982.635,438.550 " />
<polygon stroke="black" stroke-width="1" fill="rgb(204, 204, 204)" fill-opacity="0.25" points="982.635,388.583 982.635,338.407 888.032,338.407 888.032,388.583 " />
<polygon stroke="black" stroke-width="1" fill="rgb(204, 204, 204)" fill-opacity="0.25" points="982.635,388.583 982.635,338.407 888.032,338.407 888.032,388.583 " />
<polygon stroke="black" stroke-width="1" fill="rgb(204, 204, 204)" fill-opacity="0.25" points="888.032,388.583 888.032,338.407 982.635,338.407 982.635,388.583 " />
<polygon stroke="black" stroke-width="1" fill="rgb(204, 204, 204)" fill-opacity="0.25" points="888.032,388.583 888.032,338.407 982.635,338.407 982.635,388.583 " />
<polygon stroke="black" stroke-width="1" fill="rgb(204, 204, 204)" fill-opacity="0.25" points="888.032,338.407 888.032,123.206 982.635,123.206 982.635,338.407 " />
<polygon stroke="black" stroke-width="1" fill="rgb(204, 204, 204)" fill-opacity="0.25" points="888.032,338.407 888.032,123.206 982.635,123.206 982.635,338.407 " />
<polygon stroke="black" stroke-width="1" fill="rgb(204, 204, 204)" fill-opacity="0.25" points="982.635,338.407 982.635,123.206 888.032,123.206 888.032,338.407 " />
<polygon stroke="black" stroke-width="1" fill="rgb(204, 204, 204)" fill-opacity="0.25" points="982.635,338.407 982.635,123.206 888.032,123.206 888.032,338.407 " />
<polygon stroke="black" stroke-width="1" fill="rgb(204, 204, 204)" fill-opacity="0.25" points="888.032,27.036 982.635,27.036 982.635,121.639 888.032,121.639 " />
<polygon stroke="black" stroke-width="1" fill="rgb(204, 204, 204)" fill-opacity="0.25" points="982.635,27.036 888.032,27.036 888.032,121.639 982.635,121.639 " />
<polygon stroke="black" stroke-width="1" fill="rgb(204, 204, 204)" fill-opacity="0.25" points="982.635,438.550 982.635,388.583 888.032,388.583 888.032,438.550 " />
<polygon stroke="black" stroke-width="1" fill="rgb(204, 204, 204)" fill-opacity="0.25" points="982.635,438.550 982.635,388.583 888.032,388.583 888.032,438.550 " />
<polygon stroke="black" stroke-width="1" fill="rgb(204, 204, 204)" fill-opacity="0.25" points="888.032,438.550 888.032,388.583 982.635,388.583 982.635,438.550 " />
<polygon stroke="black" stroke-width="1" fill="rgb(204, 204, 204)" fill-opacity="0.25" points="888.032,438.550 888.032,388.583 982.635,388.583 982.635,438.550 " />
<polygon stroke="black" stroke-width="1" fill="rgb(204, 204, 204)" fill-opacity="0.25" points="982.635,388.583 982.635,338.407 888.032,338.407 888.032,388.583 " />
<polygon stroke="black" stroke-width="1" fill="rgb(204, 204, 204)" fill-opacity="0.25" points="982.635,388.583 982.635,338.407 888.032,338.407 888.032,388.583 " />
<polygon stroke="black" stroke-width="1" fill="rgb(204, 204, 204)" fill-opacity="0.25" points="888.032,388.583 888.032,338.407 982.635,338.407 982.635,388.583 " />
<polygon stroke="black" stroke-width="1" fill="rgb(204, 204, 204)" fill-opacity="0.25" points="888.032,388.583 888.032,338.407 982.635,338.407 982.635,388.583 " />
<polygon stroke="black" stroke-width="1" fill="rgb(204, 204, 204)" fill-opacity="0.25" points="888.032,338.407 888.032,123.206 982.635,123.206 982.635,338.407 " />
<polygon stroke="black" stroke-width="1" fill="rgb(204, 204, 204)" fill-opacity="0.25" points="888.032,338.407 888.032,123.206 982.635,123.206 982.635,338.407 " />
<polygon stroke="black" stroke-width="1" fill="rgb(204, 204, 204)" fill-opacity="0.25" points="982.635,338.407 982.635,123.206 888.032,123.206 888.032,338.407 " />
<polygon stroke="black" stroke-width="1" fill="rgb(204, 204, 204)" fill-opacity="0.25" points="982.635,338.407 982.635,123.206 888.032,123.206 888.032,338.407 " />
<polygon stroke="black" stroke-width="1" fill="rgb(204, 204, 204)" fill-opacity="0.25" points="888.032,27.036 982.635,27.036 982.635,121.639 888.032,121.639 " />
<polygon stroke="black" stroke-width="1" fill="rgb(204, 204, 204)" fill-opacity="0.25" points="982.635,27.036 888.032,27.036 888.032,121.639 982.635,121.639 " />
<polygon stroke="black" stroke-width="1" fill="rgb(204, 204, 204)" fill-opacity="0.25" points="982.635,438.550 982.635,388.583 888.032,388.583 888.032,438.550 " />
<polygon stroke="black" stroke-width="1" fill="rgb(204, 204, 204)" fill-opacity="0.25" points="982.635,438.550 982.635,388.583 888.032,388.583 888.032,438.550 " />
<polygon stroke="black" stroke-width="1" fill="rgb(204, 204, 204)" fill-opacity="0.25" points="888.032,438.550 888.032,388.583 982.635,388.583 982.635,438.550 " />
<polygon stroke="black" stroke-width="1" fill="rgb(204, 204, 204)" fill-opacity="0.25" points="888.032,438.550 888.032,388.583 982.635,388.583 982.635,438.550 " />
<polygon stroke="black" stroke-width="1" fill="rgb(204, 204, 204)" fill-opacity="0.25" points="982.635,388.583 982.635,338.407 888.032,338.407 888.032,388.583 " />
<polygon stroke="black" stroke-width="1" fill="rgb(204, 204, 204)" fill-opacity="0.25" points="982.635,388.583 982.635,338.407 888.032,338.407 888.032,388.583 " />
<polygon stroke="black" stroke-width="1" fill="rgb(204, 204, 204)" fill-opacity="0.25" points="888.032,388.583 888.032,338.407 982.635,338.407 982.635,388.583 " />
<polygon stroke="black" stroke-width="1" fill="rgb(204, 204, 204)" fill-opacity="0.25" points="888.032,388.583 888.032,338.407 982.635,338.407 982.635,388.583 " />
<polygon stroke="black" stroke-width="1" fill="rgb(204, 204, 204)" fill-opacity="0.25" points="888.032,338.407 888.032,123.206 982.635,123.206 982.635,338.407 " />
<polygon stroke="black" stroke-width="1" fill="rgb(204, 204, 204)" fill-opacity="0.25" points="888.032,338.407 888.032,123.206 982.635,123.206 982.635,338.407 " />
<polygon stroke="black" stroke-width="1" fill="rgb(204, 204, 204)" fill-opacity="0.25" points="982.635,338.407 982.635,123.206 888.032,123.206 888.032,338.407 " />
<polygon stroke="black" stroke-width="1" fill="rgb(204, 204, 204)" fill-opacity="0.25" points="982.635,338.407 982.635,123.206 888.032,123.206 888.032,338.407 " />
<polygon stroke="black" stroke-width="1" fill="rgb(204, 204, 204)" fill-opacity="0.25" points="888.032,27.036 982.635,27.036 982.635,121.639 888.032,121.639 " />
<polygon stroke="black" stroke-width="1" fill="rgb(204, 204, 204)" fill-opacity="0.25" points="982.635,27.036 888.032,27.036 888.032,121.639 982.635,121.639 " />
<polygon stroke="black" stroke-width="1" fill="rgb(204, 204, 204)" fill-opacity="0.25" points="982.635,438.550 982.635,388.583 888.032,388.583 888.032,438.550 " />
<polygon stroke="black" stroke-width="1" fill="rgb(204, 204, 204)" fill-opacity="0.25" points="982.635,438.550 982.635,388.583 888.032,388.583 888.032,438.550 " />
<polygon stroke="black" stroke-width="1" fill="rgb(204, 204, 204)" fill-opacity="0.25" points="888.032,438.550 888.032,388.583 982.635,388.583 982.635,438.550 " />
<polygon stroke="black" stroke-width="1" fill="rgb(204, 204, 204)" fill-opacity="0.25" points="888.032,438.550 888.032,388.583 982.635,388.583 982.635,438.550 " />
<polygon stroke="black" stroke-width="1" fill="rgb(204, 204, 204)" fill-opacity="0.25" points="982.635,388.583 982.635,338.407 888.032,338.407 888.032,388.583 " />
<polygon stroke="black" stroke-width="1" fill="rgb(204, 204, 204)" fill-opacity="0.25" points="982.635,388.583 982.635,338.407 888.032,338.407 888.032,388.583 " />
<polygon stroke="black" stroke-width="1" fill="rgb(204, 204, 204)" fill-opacity="0.25" points="888.032,388.583 888.032,338.407 982.635,338.407 982.635,388.583 " />
<polygon stroke="black" stroke-width="1" fill="rgb(204, 204, 204)" fill-opacity="0.25" points="888.032,388.583 888.032,338.407 982.635,338.407 982.635,388.583 " />
<polygon stroke="black" stroke-width="1" fill="rgb(204, 204, 204)" fill-opacity="0.25" points="888.032,338.407 888.032,123.206 982.635,123.206 982.635,338.407 " />
<polygon stroke="black" stroke-width="1" fill="rgb(204, 204, 204)" fill-opacity="0.25" points="888.032,338.407 888.032,123.206 982.635,123.206 982.635,338.407 " />
<polygon stroke="black" stroke-width="1" fill="rgb(204, 204, 204)" fill-opacity="0.25" points="982.635,338.407 982.635,123.206 888.032,123.206 888.032,338.407 " />
<polygon stroke="black" stroke-width="1" fill="rgb(204, 204, 204)" fill-opacity="0.25" points="982.635,338.407 982.635,123.206 888.032,123.206 888.032,338.407 " />
<polygon stroke="black" stroke-width="1" fill="rgb(204, 204, 204)" fill-opacity="0.25" points="888.032,27.036 982.635,27.036 982.635,121.639 888.032,121.639 " />
<polygon stroke="black" stroke-width="1" fill="rgb(204, 204, 204)" fill-opacity="0.25" points="982.635,27.036 888.032,27.036 888.032,121.639 982.635,121.639 " />
<polygon stroke="black" stroke-width="1" fill="rgb(204, 204, 204)" fill-opacity="0.25" points="982.635,438.550 982.635,388.583 888.032,388.583 888.032,438.550 " />
<polygon stroke="black" stroke-width="1" fill="rgb(204, 204, 204)" fill-opacity="0.25" points="982.635,438.550 982.635,388.583 888.032,388.583 888.032,438.550 " />
<polygon stroke="black" stroke-width="1" fill="rgb(204, 204, 204)" fill-opacity="0.25" points="888.032,438.550 888.032,388.583 982.635,388.583 982.635,438.550 " />
<polygon stroke="black" stroke-width="1" fill="rgb(204, 204, 204)" fill-opacity="0.25" points="888.032,438.550 888.032,388.583 982.635,388.583 982.635,438.550 " />
<polygon stroke="black" stroke-width="1" fill="rgb(204, 204, 204)" fill-opacity="0.25" points="982.635,388.583 982.635,338.407 888.032,338.407 888.032,388.583 " />
<polygon stroke="black" stroke-width="1" fill="rgb(204, 204, 204)" fill-opacity="0.25" points="982.635,388.583 982.635,338.407 888.032,338.407 888.032,388.583 " />
<polygon stroke="black" stroke-width="1" fill="rgb(204, 204, 204)" fill-opacity="0.25" points="888.032,388.583 888.032,338.407 982.635,338.407 982.635,388.583 " />
<polygon stroke="black" stroke-width="1" fill="rgb(204, 204, 204)" fill-opacity="0.25" points="888.032,388.583 888.032,338.407 982.635,338.407 982.635,388.583 " />

</svg>
